STARTFONT 2.1
COMMENT
COMMENT Converted from OpenType font "manrope-regular.otf" by "otf2bdf 3.0".
COMMENT
FONT -FreeType-Manrope-Medium-R-Normal--48-350-100-100-P-220-ISO10646-1
SIZE 35 100 100
FONTBOUNDINGBOX 46 61 -1 -12
STARTPROPERTIES 19
FOUNDRY "FreeType"
FAMILY_NAME "Manrope"
WEIGHT_NAME "Medium"
SLANT "R"
SETWIDTH_NAME "Normal"
ADD_STYLE_NAME ""
PIXEL_SIZE 48
POINT_SIZE 350
RESOLUTION_X 100
RESOLUTION_Y 100
SPACING "P"
AVERAGE_WIDTH 220
CHARSET_REGISTRY "ISO10646"
CHARSET_ENCODING "1"
FONT_ASCENT 52
FONT_DESCENT 14
COPYRIGHT "Copyright 2019-2021 The Manrope Project Authors (https://github.com/sharanda/manrope)"
_OTF_FONTFILE "manrope-regular.otf"
_OTF_PSNAME "Manrope-Regular"
ENDPROPERTIES
CHARS 191
STARTCHAR 0020
ENCODING 32
SWIDTH 205 0
DWIDTH 10 0
BBX 0 0 0 0
BITMAP
ENDCHAR
STARTCHAR 0021
ENCODING 33
SWIDTH 308 0
DWIDTH 15 0
BBX 3 35 6 0
BITMAP
E0
E0
E0
E0
E0
E0
E0
E0
E0
E0
E0
E0
E0
E0
E0
E0
E0
E0
E0
E0
E0
E0
E0
E0
E0
E0
00
00
00
00
00
E0
E0
E0
E0
ENDCHAR
STARTCHAR 0022
ENCODING 34
SWIDTH 390 0
DWIDTH 19 0
BBX 11 9 3 26
BITMAP
E0E0
E0E0
E0E0
E0E0
E0E0
E0E0
E0E0
E0E0
E0E0
ENDCHAR
STARTCHAR 0023
ENCODING 35
SWIDTH 925 0
DWIDTH 45 0
BBX 39 35 3 0
BITMAP
0000F00E00
0000F00E00
0000E01E00
0001E01E00
0001E01C00
0001C01C00
0001C03C00
0003C03C00
0003C03800
0003803800
0FFFFFFFFE
1FFFFFFFFC
1FFFFFFFFC
000700F000
000700F000
000F00E000
000F00E000
000E01E000
001E01E000
001E01C000
001C01C000
7FFFFFFFF0
FFFFFFFFE0
FFFFFFFFE0
0038078000
0038078000
0078070000
0078070000
00700F0000
00F00F0000
00F00E0000
00E00E0000
00E01E0000
01E01E0000
01E01C0000
ENDCHAR
STARTCHAR 0024
ENCODING 36
SWIDTH 596 0
DWIDTH 29 0
BBX 25 43 2 -4
BITMAP
001C0000
001C0000
001C0000
001C0000
00FF8000
07FFE000
0FFFF800
1FE3FC00
3E007E00
3C003E00
78001F00
78000F00
78000780
78000780
78000000
78000000
3C000000
3F000000
1FC00000
0FFC0000
03FF8000
007FF000
000FFC00
0000FE00
00003F00
00000F00
00000780
00000780
00000780
E0000380
F0000780
F0000780
78000F00
7C000F00
3F003E00
1FF3FE00
0FFFF800
03FFF000
00FF8000
001C0000
001C0000
001C0000
001C0000
ENDCHAR
STARTCHAR 0025
ENCODING 37
SWIDTH 905 0
DWIDTH 44 0
BBX 38 35 3 0
BITMAP
03F0000020
0FFC0000F0
1FFE0001F0
3E3F0003E0
780F0007C0
F007800F80
F003801F00
E003803E00
E003807C00
E00380F800
F00381F000
F00783E000
780F07C000
3E3F0F8000
3FFE1F0000
0FFC3E0000
03F07C0000
0000F80000
0001F03F00
0003E0FFC0
0007C1FFE0
000F83F1F0
001F07C078
003E078038
007C07003C
00F80F001C
01F00F001C
03E00F001C
07C007003C
0F80078038
1F0007C078
3E0003F1F0
7C0001FFE0
380000FFC0
1000003F00
ENDCHAR
STARTCHAR 0026
ENCODING 38
SWIDTH 658 0
DWIDTH 32 0
BBX 29 35 2 0
BITMAP
007F0000
01FFE000
07FFF000
0FF7F800
0F807C00
1E003C00
1E001000
1C000000
3C000000
3C000000
3C000000
1E000000
1E000000
0F000000
0F800000
07C00000
03E00000
0FF00000
1FF80380
3E3E0380
7C1F0380
780F8380
7007C380
F001E380
F000F380
F0007B80
70003F80
78001F80
78000F80
3C001FC0
3F003FE0
1FF3FDF0
0FFFF8F8
03FFF070
00FF8020
ENDCHAR
STARTCHAR 0027
ENCODING 39
SWIDTH 205 0
DWIDTH 10 0
BBX 3 9 3 26
BITMAP
E0
E0
E0
E0
E0
E0
E0
E0
E0
ENDCHAR
STARTCHAR 0028
ENCODING 40
SWIDTH 432 0
DWIDTH 21 0
BBX 12 49 7 -9
BITMAP
0040
00E0
01E0
03C0
03C0
0780
0F00
0F00
1E00
1E00
1C00
3C00
3800
7800
7800
7000
7000
F000
F000
E000
E000
E000
E000
E000
E000
E000
E000
E000
E000
E000
F000
F000
7000
7000
7800
7800
3800
3C00
3C00
1C00
1E00
0E00
0F00
0780
0780
03C0
01E0
01F0
00C0
ENDCHAR
STARTCHAR 0029
ENCODING 41
SWIDTH 432 0
DWIDTH 21 0
BBX 12 49 2 -9
BITMAP
2000
7000
F800
7800
3C00
1E00
1E00
0F00
0F00
0780
0780
0380
03C0
01C0
01C0
01E0
00E0
00E0
00E0
00F0
00F0
00F0
00F0
0070
0070
0070
0070
00F0
00F0
00F0
00E0
00E0
00E0
01E0
01E0
01C0
03C0
03C0
0380
0780
0700
0F00
0E00
1E00
3C00
3C00
7800
F000
7000
ENDCHAR
STARTCHAR 002A
ENCODING 42
SWIDTH 432 0
DWIDTH 21 0
BBX 16 16 2 19
BITMAP
03C0
0380
0380
0380
8382
F38F
FFFF
FFFF
1FF8
07E0
0FE0
0EF0
1E78
3C3C
383C
1810
ENDCHAR
STARTCHAR 002B
ENCODING 43
SWIDTH 576 0
DWIDTH 28 0
BBX 22 23 3 6
BITMAP
007800
007800
007800
007800
007800
007800
007800
007800
007800
007800
FFFFFC
FFFFFC
FFFFFC
007800
007800
007800
007800
007800
007800
007800
007800
007800
007800
ENDCHAR
STARTCHAR 002C
ENCODING 44
SWIDTH 267 0
DWIDTH 13 0
BBX 4 10 3 -5
BITMAP
F0
F0
F0
F0
F0
30
30
30
E0
E0
ENDCHAR
STARTCHAR 002D
ENCODING 45
SWIDTH 411 0
DWIDTH 20 0
BBX 15 3 3 14
BITMAP
FFFE
FFFE
FFFE
ENDCHAR
STARTCHAR 002E
ENCODING 46
SWIDTH 246 0
DWIDTH 12 0
BBX 4 4 4 0
BITMAP
F0
F0
F0
F0
ENDCHAR
STARTCHAR 002F
ENCODING 47
SWIDTH 390 0
DWIDTH 19 0
BBX 13 35 3 0
BITMAP
0078
0078
0070
00F0
00F0
00E0
00E0
01E0
01E0
01C0
03C0
03C0
03C0
0380
0780
0780
0780
0700
0F00
0F00
0E00
0E00
1E00
1E00
1C00
3C00
3C00
3C00
3800
7800
7800
7800
7000
F000
F000
ENDCHAR
STARTCHAR 0030
ENCODING 48
SWIDTH 617 0
DWIDTH 30 0
BBX 23 35 3 0
BITMAP
00FE00
03FFC0
0FFFE0
1FEFF0
3F00F8
3C007C
7C003C
78001E
70001E
F0001E
F0000E
F0000E
F0000E
F0000E
F0000E
F0000E
F0000E
F0000E
F0000E
F0000E
F0000E
F0000E
F0000E
F0000E
F0000E
F0001E
70001E
78001E
78003C
3C007C
1F00F8
1FEFF0
0FFFE0
03FFC0
00FE00
ENDCHAR
STARTCHAR 0031
ENCODING 49
SWIDTH 390 0
DWIDTH 19 0
BBX 10 35 3 0
BITMAP
03C0
0FC0
3FC0
7FC0
FFC0
F3C0
C3C0
83C0
03C0
03C0
03C0
03C0
03C0
03C0
03C0
03C0
03C0
03C0
03C0
03C0
03C0
03C0
03C0
03C0
03C0
03C0
03C0
03C0
03C0
03C0
03C0
03C0
03C0
03C0
03C0
ENDCHAR
STARTCHAR 0032
ENCODING 50
SWIDTH 576 0
DWIDTH 28 0
BBX 23 35 2 0
BITMAP
00FE00
03FFC0
07FFE0
0FE7F0
1F00F8
3E007C
3C003C
78001E
78001E
70001E
70000E
00000E
00000E
00001E
00001E
00003C
00003C
000078
0001F8
0003F0
0007C0
000F80
001F00
003E00
007C00
00F800
03F000
07E000
0F8000
1F0000
3E0000
7C0000
FFFFFE
FFFFFE
FFFFFE
ENDCHAR
STARTCHAR 0033
ENCODING 51
SWIDTH 555 0
DWIDTH 27 0
BBX 22 35 2 0
BITMAP
7FFFFC
7FFFFC
7FFFFC
00007C
0000F0
0001E0
0003C0
000F80
001F00
003E00
007C00
00F800
01F000
03FE00
07FF80
03FFC0
0307E0
0001F0
0000F8
000078
00003C
00003C
00003C
00003C
00003C
00003C
00003C
F00078
F00078
7800F8
7E01F0
3F9FE0
1FFFC0
07FF80
01FC00
ENDCHAR
STARTCHAR 0034
ENCODING 52
SWIDTH 596 0
DWIDTH 29 0
BBX 24 35 2 0
BITMAP
000F00
001E00
001E00
003E00
003C00
003C00
007800
007800
00F000
00F000
01E000
01E000
03C000
03C000
078000
078070
0F0070
0F0070
1E0070
1E0070
1E0070
3C0070
3C0070
780070
780070
FFFFFF
FFFFFF
FFFFFF
000070
000070
000070
000070
000070
000070
000070
ENDCHAR
STARTCHAR 0035
ENCODING 53
SWIDTH 576 0
DWIDTH 28 0
BBX 24 35 2 0
BITMAP
3FFFF8
3FFFF8
3FFFF8
3C0000
3C0000
3C0000
3C0000
3C0000
380000
380000
380000
380000
387E00
39FFC0
3FFFE0
3FE7F0
7E00F8
7C007C
18003E
00001E
00001E
00000E
00000F
00000F
00000F
00000E
F0001E
78001E
78003C
3C007C
3F00F8
1FFFF0
0FFFE0
03FFC0
00FE00
ENDCHAR
STARTCHAR 0036
ENCODING 54
SWIDTH 617 0
DWIDTH 30 0
BBX 24 35 3 0
BITMAP
007F00
03FFC0
07FFF0
0FF7F8
1F007C
3E003C
3C0010
780000
780000
700000
F00000
F00000
F00000
F0FF80
F1FFE0
F7FFF0
FF81F8
FE007C
FC003E
F8001E
F8000F
F0000F
F0000F
F0000F
F0000F
70000F
78000F
78001E
3C001E
3E003C
1F00FC
0FF7F8
07FFF0
03FFC0
007F00
ENDCHAR
STARTCHAR 0037
ENCODING 55
SWIDTH 493 0
DWIDTH 24 0
BBX 20 35 2 0
BITMAP
FFFFF0
FFFFF0
FFFFF0
0000F0
0000F0
0001E0
0001E0
0001C0
0003C0
0003C0
000780
000780
000F00
000F00
000E00
001E00
001E00
003C00
003C00
003800
007800
007800
00F000
00F000
00E000
01E000
01E000
03C000
03C000
038000
078000
078000
0F0000
0F0000
1E0000
ENDCHAR
STARTCHAR 0038
ENCODING 56
SWIDTH 576 0
DWIDTH 28 0
BBX 22 35 3 0
BITMAP
01FE00
07FF80
0FFFE0
1FFFE0
3E01F0
7C00F8
780078
780078
780038
780038
780078
780078
7C00F8
3E01F0
1FEFE0
0FFFC0
0FFFC0
1FFFE0
3F03F0
7C00F8
780078
F0003C
F0003C
F0003C
F0003C
F0003C
F0003C
F0003C
78003C
780078
3E01F8
3FEFF0
1FFFE0
07FF80
01FE00
ENDCHAR
STARTCHAR 0039
ENCODING 57
SWIDTH 617 0
DWIDTH 30 0
BBX 24 35 3 0
BITMAP
00FE00
03FFC0
0FFFE0
1FFFF0
3F00F8
3C007C
78003E
78001E
F0000E
F0000F
F0000F
F0000F
F0000F
F0000F
70001F
78001F
7C003F
3E007F
1F81FF
0FFFEF
07FFCF
01FF0F
00000F
00000F
00000F
00000F
00000E
00001E
08003E
1C007C
3E00F8
1FE7F0
0FFFE0
03FFC0
00FE00
ENDCHAR
STARTCHAR 003A
ENCODING 58
SWIDTH 308 0
DWIDTH 15 0
BBX 5 18 5 4
BITMAP
F8
F8
F8
F8
00
00
00
00
00
00
00
00
00
00
F8
F8
F8
F8
ENDCHAR
STARTCHAR 003B
ENCODING 59
SWIDTH 308 0
DWIDTH 15 0
BBX 5 31 5 -5
BITMAP
F8
F8
F8
F8
00
00
00
00
00
00
00
00
00
00
00
00
00
00
00
00
00
F8
F8
F8
F8
F8
18
30
30
70
E0
ENDCHAR
STARTCHAR 003C
ENCODING 60
SWIDTH 617 0
DWIDTH 30 0
BBX 13 23 7 3
BITMAP
0010
0038
0078
00F0
01E0
03C0
0780
0F00
1E00
3C00
7800
F000
7800
3C00
1E00
0F00
0780
03C0
01E0
00F0
0078
0038
0010
ENDCHAR
STARTCHAR 003D
ENCODING 61
SWIDTH 740 0
DWIDTH 36 0
BBX 25 11 6 12
BITMAP
FFFFFF80
FFFFFF80
FFFFFF80
00000000
00000000
00000000
00000000
00000000
FFFFFF80
FFFFFF80
FFFFFF80
ENDCHAR
STARTCHAR 003E
ENCODING 62
SWIDTH 617 0
DWIDTH 30 0
BBX 14 23 9 3
BITMAP
2000
7000
7800
3C00
1E00
0F00
0780
03C0
01E0
00F0
0078
003C
0078
00F0
01E0
07C0
0F80
1F00
3E00
7C00
F800
7000
2000
ENDCHAR
STARTCHAR 003F
ENCODING 63
SWIDTH 514 0
DWIDTH 25 0
BBX 21 35 2 0
BITMAP
01FC00
07FF80
1FFFC0
3FDFE0
3C01F0
7800F0
780078
700078
F00078
000078
000078
000078
0000F0
0000F0
0001E0
0007E0
000FC0
001F00
003E00
007C00
007800
007000
00F000
00F000
00F000
00F000
000000
000000
000000
000000
00F000
00F000
00F000
00F000
00F000
ENDCHAR
STARTCHAR 0040
ENCODING 64
SWIDTH 905 0
DWIDTH 44 0
BBX 36 36 4 -5
BITMAP
0007FE0000
003FFFC000
00FFFFF000
01FC01FC00
07E0007E00
0780001F00
0F00000F80
1E00000780
3C000003C0
3C000001E0
78000001E0
7001F000E0
7007FF80F0
F00FFF80F0
F01E0F8070
E01C078070
E03C038070
E038038070
E038038070
E038038070
E03C0380F0
E03C0780E0
F01E0FC1E0
700FFFF7C0
7007FDFFC0
7803F8FF80
3C00001C00
3C00000000
1E00000000
0F00000000
0780000000
07E0004000
01FC03E000
00FFFFE000
003FFFC000
0007FE0000
ENDCHAR
STARTCHAR 0041
ENCODING 65
SWIDTH 637 0
DWIDTH 31 0
BBX 29 35 1 0
BITMAP
000F8000
001F8000
001FC000
001FC000
003DC000
003DE000
003DE000
0078E000
0078F000
0070F000
00F07000
00F07800
00E07800
01E03800
01E03C00
01C03C00
03C01C00
03C01E00
03801E00
07800E00
07800F00
07000F00
0F000780
0FFFFF80
0FFFFF80
1FFFFFC0
1E0003C0
1C0001C0
3C0001E0
3C0001E0
380000E0
780000F0
780000F0
F0000070
F0000078
ENDCHAR
STARTCHAR 0042
ENCODING 66
SWIDTH 617 0
DWIDTH 30 0
BBX 25 35 3 0
BITMAP
FFFF8000
FFFFE000
FFFFF800
F001FC00
F0003C00
F0001E00
F0001E00
F0000F00
F0000F00
F0000F00
F0000F00
F0001E00
F0001E00
F0003E00
F000FC00
FFFFF800
FFFFF000
FFFFF800
F000FE00
F0001E00
F0000F00
F0000780
F0000780
F0000780
F0000380
F0000380
F0000380
F0000780
F0000780
F0000F80
F0001F00
F001FE00
FFFFFC00
FFFFF800
FFFFE000
ENDCHAR
STARTCHAR 0043
ENCODING 67
SWIDTH 720 0
DWIDTH 35 0
BBX 32 35 1 0
BITMAP
000FF800
007FFF00
01FFFFC0
03FF3FE0
07E003F0
0F8000F8
1F00007C
1E00003C
3E00001E
3C00001E
7800000F
7800000C
78000000
78000000
70000000
70000000
F0000000
F0000000
F0000000
F0000000
70000000
78000000
78000000
7800000C
7800000F
3C00001E
3C00001E
1E00003C
1F00007C
0F8000F8
07E003F0
03FF3FE0
01FFFFC0
007FFF00
000FF800
ENDCHAR
STARTCHAR 0044
ENCODING 68
SWIDTH 678 0
DWIDTH 33 0
BBX 28 35 3 0
BITMAP
FFFF8000
FFFFF000
FFFFF800
F00FFC00
F0003E00
F0001F00
F0000F80
F0000780
F00003C0
F00003C0
F00001E0
F00001E0
F00001E0
F00001E0
F00000E0
F00000E0
F00000E0
F00000F0
F00000E0
F00000E0
F00000E0
F00001E0
F00001E0
F00001E0
F00001E0
F00003C0
F00003C0
F0000780
F0000F80
F0001F00
F0003E00
F00FFE00
FFFFF800
FFFFF000
FFFF8000
ENDCHAR
STARTCHAR 0045
ENCODING 69
SWIDTH 576 0
DWIDTH 28 0
BBX 22 35 3 0
BITMAP
FFFFFC
FFFFFC
FFFFFC
F00000
F00000
F00000
F00000
F00000
F00000
F00000
F00000
F00000
F00000
F00000
F00000
F00000
FFFFE0
FFFFE0
FFFFE0
F00000
F00000
F00000
F00000
F00000
F00000
F00000
F00000
F00000
F00000
F00000
F00000
F00000
FFFFFC
FFFFFC
FFFFFC
ENDCHAR
STARTCHAR 0046
ENCODING 70
SWIDTH 493 0
DWIDTH 24 0
BBX 21 35 3 0
BITMAP
FFFFF8
FFFFF8
FFFFF8
FFFFF8
F00000
F00000
F00000
F00000
F00000
F00000
F00000
F00000
F00000
F00000
F00000
FFFFC0
FFFFC0
FFFFC0
FFFFC0
F00000
F00000
F00000
F00000
F00000
F00000
F00000
F00000
F00000
F00000
F00000
F00000
F00000
F00000
F00000
F00000
ENDCHAR
STARTCHAR 0047
ENCODING 71
SWIDTH 699 0
DWIDTH 34 0
BBX 32 35 1 0
BITMAP
000FF800
007FFF00
01FFFF80
03FF7FE0
07E003F0
0F8001F8
1F000078
1E00007C
3C00003C
3C000018
78000000
78000000
78000000
78000000
70000000
70000000
F0000000
F0000FFF
F0000FFF
70000FFF
7000000F
7800000F
7800000F
7800001E
3800001E
3C00001E
3C00003C
1E00003C
1F000078
0F8000F8
07E003F0
03FF3FE0
01FFFFC0
007FFF00
000FF800
ENDCHAR
STARTCHAR 0048
ENCODING 72
SWIDTH 678 0
DWIDTH 33 0
BBX 27 35 3 0
BITMAP
F00001E0
F00001E0
F00001E0
F00001E0
F00001E0
F00001E0
F00001E0
F00001E0
F00001E0
F00001E0
F00001E0
F00001E0
F00001E0
F00001E0
F00001E0
F00001E0
FFFFFFE0
FFFFFFE0
FFFFFFE0
F00001E0
F00001E0
F00001E0
F00001E0
F00001E0
F00001E0
F00001E0
F00001E0
F00001E0
F00001E0
F00001E0
F00001E0
F00001E0
F00001E0
F00001E0
F00001E0
ENDCHAR
STARTCHAR 0049
ENCODING 73
SWIDTH 226 0
DWIDTH 11 0
BBX 3 35 4 0
BITMAP
E0
E0
E0
E0
E0
E0
E0
E0
E0
E0
E0
E0
E0
E0
E0
E0
E0
E0
E0
E0
E0
E0
E0
E0
E0
E0
E0
E0
E0
E0
E0
E0
E0
E0
E0
ENDCHAR
STARTCHAR 004A
ENCODING 74
SWIDTH 473 0
DWIDTH 23 0
BBX 19 35 0 0
BITMAP
0001E0
0001E0
0001E0
0001E0
0001E0
0001E0
0001E0
0001E0
0001E0
0001E0
0001E0
0001E0
0001E0
0001E0
0001E0
0001E0
0001E0
0001E0
0001E0
0001E0
0001E0
0001E0
0001E0
0001E0
0001E0
0001E0
0001E0
3001C0
F003C0
7803C0
7C07C0
3FBF80
1FFF00
0FFE00
03F800
ENDCHAR
STARTCHAR 004B
ENCODING 75
SWIDTH 596 0
DWIDTH 29 0
BBX 25 35 3 0
BITMAP
F0001F00
F0003E00
F0003C00
F0007800
F000F000
F001E000
F003C000
F0078000
F00F0000
F01E0000
F03C0000
F0780000
F0F00000
F1F00000
F3E00000
F7C00000
FF800000
FF800000
F7C00000
F3E00000
F1F00000
F0F80000
F07C0000
F03E0000
F01F0000
F00F8000
F007C000
F003E000
F001F000
F000F800
F0007800
F0003C00
F0001E00
F0000F00
F0000780
ENDCHAR
STARTCHAR 004C
ENCODING 76
SWIDTH 514 0
DWIDTH 25 0
BBX 20 35 4 0
BITMAP
E00000
E00000
E00000
E00000
E00000
E00000
E00000
E00000
E00000
E00000
E00000
E00000
E00000
E00000
E00000
E00000
E00000
E00000
E00000
E00000
E00000
E00000
E00000
E00000
E00000
E00000
E00000
E00000
E00000
E00000
E00000
E00000
FFFFF0
FFFFF0
FFFFF0
ENDCHAR
STARTCHAR 004D
ENCODING 77
SWIDTH 843 0
DWIDTH 41 0
BBX 34 35 3 0
BITMAP
F0000001C0
F0000003C0
F8000003C0
F8000007C0
FC000007C0
FC000007C0
FE00000FC0
FE00000FC0
FF00001FC0
F700001DC0
F780003DC0
F7800039C0
F3C00079C0
F3C00079C0
F1C000F1C0
F1E000F1C0
F0E001E1C0
F0F001E1C0
F07001C1C0
F07803C1C0
F0380381C0
F03C0781C0
F03C0701C0
F01E0F01C0
F01E0E01C0
F00F1E01C0
F00F1E01C0
F007BC01C0
F007BC01C0
F003F801C0
F003F801C0
F001F001C0
F001F001C0
F000E001C0
F000E001C0
ENDCHAR
STARTCHAR 004E
ENCODING 78
SWIDTH 678 0
DWIDTH 33 0
BBX 27 35 3 0
BITMAP
F00001E0
F80001E0
FC0001E0
FC0001E0
FE0001E0
FF0001E0
FF0001E0
F78001E0
F7C001E0
F3C001E0
F1E001E0
F1F001E0
F0F001E0
F07801E0
F07C01E0
F03C01E0
F01E01E0
F00F01E0
F00F01E0
F00781E0
F003C1E0
F003C1E0
F001E1E0
F000F1E0
F000F1E0
F00079E0
F0003DE0
F0003DE0
F0001FE0
F0000FE0
F0000FE0
F00007E0
F00003E0
F00003E0
F00001E0
ENDCHAR
STARTCHAR 004F
ENCODING 79
SWIDTH 720 0
DWIDTH 35 0
BBX 33 35 1 0
BITMAP
000FF80000
007FFF0000
01FFFFC000
03FF7FE000
07E003F000
0F8000F800
1F00007C00
1E00003C00
3C00001E00
3C00001E00
7800000F00
7800000F00
7800000F00
7800000700
7000000780
7000000780
F000000780
F000000780
F000000780
F000000780
7000000780
7800000700
7800000F00
7800000F00
7800000F00
3C00001E00
3C00001E00
1E00003C00
1F00007C00
0F8000F800
07E003F000
03FF3FE000
01FFFFC000
007FFF0000
000FF80000
ENDCHAR
STARTCHAR 0050
ENCODING 80
SWIDTH 596 0
DWIDTH 29 0
BBX 25 35 3 0
BITMAP
FFFFC000
FFFFF000
FFFFF800
F003FC00
F0003E00
F0001F00
F0000F00
F0000700
F0000780
F0000780
F0000780
F0000780
F0000780
F0000780
F0000700
F0000F00
F0001F00
F0003E00
F001FC00
FFFFF800
FFFFF000
FFFFC000
F0000000
F0000000
F0000000
F0000000
F0000000
F0000000
F0000000
F0000000
F0000000
F0000000
F0000000
F0000000
F0000000
ENDCHAR
STARTCHAR 0051
ENCODING 81
SWIDTH 720 0
DWIDTH 35 0
BBX 33 35 1 0
BITMAP
000FF80000
007FFF0000
01FFFFC000
03FF7FE000
07E003F000
0F8000F800
1F00007C00
1E00003C00
3C00001E00
3C00001E00
7800000F00
7800000F00
7800000F00
7800000700
7000000780
7000000780
F000000780
F000000780
F000000780
F000000780
7000000780
7800000700
7800000F00
7800000F00
7800030F00
3C00079E00
3C0007DE00
1E0003FC00
1F0001FC00
0F8000F800
07E003FC00
03FF3FFE00
01FFFFDF00
007FFF0E00
000FF80400
ENDCHAR
STARTCHAR 0052
ENCODING 82
SWIDTH 637 0
DWIDTH 31 0
BBX 25 35 3 0
BITMAP
FFFFC000
FFFFF000
FFFFF800
F003FC00
F0003E00
F0001F00
F0000F00
F0000700
F0000780
F0000780
F0000780
F0000780
F0000780
F0000780
F0000700
F0000F00
F0001F00
F0003E00
F001FC00
FFFFF800
FFFFF000
FFFFE000
F001E000
F000F000
F000F000
F0007800
F0007800
F0003C00
F0003C00
F0001E00
F0001E00
F0000F00
F0000F00
F0000780
F0000780
ENDCHAR
STARTCHAR 0053
ENCODING 83
SWIDTH 617 0
DWIDTH 30 0
BBX 26 35 2 0
BITMAP
007F8000
03FFF000
0FFFF800
1FF3FE00
3F003F00
3E001F00
7C000F80
78000780
780003C0
780003C0
78000200
78000000
3C000000
3F000000
1FE00000
0FFE0000
03FFC000
007FF800
0007FE00
0000FF00
00001F80
000007C0
000003C0
000003C0
000001C0
F00001C0
F00001C0
F80003C0
780003C0
7E000780
3F001F80
1FFBFF00
07FFFC00
03FFF800
007FC000
ENDCHAR
STARTCHAR 0054
ENCODING 84
SWIDTH 596 0
DWIDTH 29 0
BBX 29 35 0 0
BITMAP
FFFFFFF8
FFFFFFF8
FFFFFFF8
00070000
00070000
00070000
00070000
00070000
00070000
00070000
00070000
00070000
00070000
00070000
00070000
00070000
00070000
00070000
00070000
00070000
00070000
00070000
00070000
00070000
00070000
00070000
00070000
00070000
00070000
00070000
00070000
00070000
00070000
00070000
00070000
ENDCHAR
STARTCHAR 0055
ENCODING 85
SWIDTH 699 0
DWIDTH 34 0
BBX 28 35 3 0
BITMAP
F00000F0
F00000F0
F00000F0
F00000F0
F00000F0
F00000F0
F00000F0
F00000F0
F00000F0
F00000F0
F00000F0
F00000F0
F00000F0
F00000F0
F00000F0
F00000F0
F00000F0
F00000F0
F00000F0
F00000F0
F00000F0
F00000F0
F00000F0
F00000F0
700000E0
780001E0
780001E0
7C0003E0
3E0007C0
1F000F80
1F801F80
0FF9FF00
03FFFE00
01FFF800
003FC000
ENDCHAR
STARTCHAR 0056
ENCODING 86
SWIDTH 596 0
DWIDTH 29 0
BBX 29 35 0 0
BITMAP
F0000078
70000078
78000070
780000F0
3C0000F0
3C0001E0
3C0001E0
1E0001E0
1E0003C0
1E0003C0
0F000380
0F000780
07000780
07800700
07800F00
03800F00
03C00E00
03C01E00
01C01E00
01E01C00
01E03C00
00E03C00
00F03800
00F07800
00707800
00787000
0078F000
0038F000
003DE000
003DE000
001DE000
001FC000
001FC000
000FC000
000F8000
ENDCHAR
STARTCHAR 0057
ENCODING 87
SWIDTH 925 0
DWIDTH 45 0
BBX 44 35 1 0
BITMAP
F0000F0000F0
F0001F0001E0
F0001F0001E0
78001F8001E0
78001F8001C0
78003F8003C0
38003F8003C0
3C003BC003C0
3C007BC00380
1C0079C00780
1E0079E00780
1E0071E00700
1E00F1E00F00
0E00F0E00F00
0F00E0F00E00
0F01E0F00E00
0701E0701E00
0701E0781E00
0781C0781C00
0783C0383C00
0383C0383C00
03C3803C3800
03C3803C3800
01C7801C7800
01C7801E7800
01E7001E7000
01EF000EF000
00EF000EF000
00FE000FE000
00FE000FE000
007E0007E000
007C0007E000
007C0007C000
007C0003C000
003C0003C000
ENDCHAR
STARTCHAR 0058
ENCODING 88
SWIDTH 596 0
DWIDTH 29 0
BBX 28 35 1 0
BITMAP
F00001E0
780003E0
7C0003C0
3C000780
1E000F80
0F000F00
0F801E00
07803E00
03C03C00
03E07800
01E0F800
00F0F000
00F9E000
007BC000
003FC000
003F8000
001F0000
001F0000
001F8000
003F8000
007FC000
0079E000
00F1E000
01F0F000
01E07800
03C07800
07C03C00
07801E00
0F001F00
1F000F00
1E000780
3C0007C0
7C0003C0
F80001E0
F00001F0
ENDCHAR
STARTCHAR 0059
ENCODING 89
SWIDTH 555 0
DWIDTH 27 0
BBX 27 35 0 0
BITMAP
F00001E0
780003C0
7C0007C0
3C000780
1E000F00
1E000F00
0F001E00
0F001E00
07803C00
07C07C00
03C07800
01E0F000
01E0F000
00F1E000
00F9E000
007BC000
007FC000
003F8000
001F0000
001F0000
000E0000
000E0000
000E0000
000E0000
000E0000
000E0000
000E0000
000E0000
000E0000
000E0000
000E0000
000E0000
000E0000
000E0000
000E0000
ENDCHAR
STARTCHAR 005A
ENCODING 90
SWIDTH 617 0
DWIDTH 30 0
BBX 25 35 2 0
BITMAP
7FFFFF80
7FFFFF80
7FFFFF00
00000F00
00001E00
00003E00
00003C00
00007800
0000F800
0000F000
0001E000
0001E000
0003C000
0007C000
00078000
000F0000
001F0000
001E0000
003C0000
003C0000
00780000
00F80000
00F00000
01E00000
03E00000
03C00000
07C00000
07800000
0F000000
1F000000
1E000000
3C000000
3FFFFF80
7FFFFF80
FFFFFF80
ENDCHAR
STARTCHAR 005B
ENCODING 91
SWIDTH 411 0
DWIDTH 20 0
BBX 9 53 7 -10
BITMAP
FF80
FF80
FF80
E000
E000
E000
E000
E000
E000
E000
E000
E000
E000
E000
E000
E000
E000
E000
E000
E000
E000
E000
E000
E000
E000
E000
E000
E000
E000
E000
E000
E000
E000
E000
E000
E000
E000
E000
E000
E000
E000
E000
E000
E000
E000
E000
E000
E000
E000
E000
FF80
FF80
FF80
ENDCHAR
STARTCHAR 005C
ENCODING 92
SWIDTH 390 0
DWIDTH 19 0
BBX 13 35 3 0
BITMAP
F000
F000
7000
7800
7800
7800
3800
3C00
3C00
3C00
1C00
1E00
1E00
0E00
0E00
0F00
0F00
0700
0780
0780
0780
0380
03C0
03C0
03C0
01C0
01E0
01E0
00E0
00E0
00F0
00F0
0070
0078
0078
ENDCHAR
STARTCHAR 005D
ENCODING 93
SWIDTH 411 0
DWIDTH 20 0
BBX 9 53 4 -10
BITMAP
FF80
FF80
FF80
0380
0380
0380
0380
0380
0380
0380
0380
0380
0380
0380
0380
0380
0380
0380
0380
0380
0380
0380
0380
0380
0380
0380
0380
0380
0380
0380
0380
0380
0380
0380
0380
0380
0380
0380
0380
0380
0380
0380
0380
0380
0380
0380
0380
0380
0380
0380
FF80
FF80
FF80
ENDCHAR
STARTCHAR 005E
ENCODING 94
SWIDTH 678 0
DWIDTH 33 0
BBX 23 14 5 22
BITMAP
001000
003800
007C00
00FE00
01FF00
03EF80
07C7C0
0F83E0
1F01F0
3E00F8
7C007C
F8003E
70001C
200008
ENDCHAR
STARTCHAR 005F
ENCODING 95
SWIDTH 658 0
DWIDTH 32 0
BBX 32 3 0 -5
BITMAP
FFFFFFFF
FFFFFFFF
FFFFFFFF
ENDCHAR
STARTCHAR 0060
ENCODING 96
SWIDTH 493 0
DWIDTH 24 0
BBX 6 8 8 39
BITMAP
E0
70
70
78
38
38
1C
1C
ENDCHAR
STARTCHAR 0061
ENCODING 97
SWIDTH 555 0
DWIDTH 27 0
BBX 22 26 2 0
BITMAP
00FE00
07FFC0
0FFFE0
1FEFF0
3E00F8
7C0078
78003C
18003C
00003C
00001C
0007FC
01FFFC
0FFFFC
3FF81C
7F003C
78003C
F0003C
F0003C
F0003C
F0007C
F000FC
7801FC
7C0FDC
3FFF9C
1FFE1C
07F800
ENDCHAR
STARTCHAR 0062
ENCODING 98
SWIDTH 596 0
DWIDTH 29 0
BBX 24 35 3 0
BITMAP
F00000
F00000
F00000
F00000
F00000
F00000
F00000
F00000
F00000
F07F00
F1FFC0
F7FFE0
FFC7F0
FE00F8
FC007C
F8003C
F8001E
F0001E
F0000E
F0000F
F0000F
F0000F
F0000F
F0000F
F0000F
F0000E
F0001E
F8001E
F8003C
FC007C
FE00F8
FFC7F8
F7FFE0
F3FFC0
F07F00
ENDCHAR
STARTCHAR 0063
ENCODING 99
SWIDTH 555 0
DWIDTH 27 0
BBX 23 26 2 0
BITMAP
00FF00
03FFC0
0FFFF0
1FF7F8
3F007C
3C003E
7C001E
78000C
700000
F00000
F00000
F00000
F00000
F00000
F00000
F00000
F00000
700000
780008
7C001E
3C003E
3F007C
1FE7F8
0FFFF0
03FFE0
007F00
ENDCHAR
STARTCHAR 0064
ENCODING 100
SWIDTH 596 0
DWIDTH 29 0
BBX 23 35 2 0
BITMAP
00000E
00000E
00000E
00000E
00000E
00000E
00000E
00000E
00000E
00FE0E
03FF8E
0FFFEE
1FC3FE
3F00FE
3C003E
7C003E
78001E
70001E
F0000E
F0000E
F0000E
F0000E
F0000E
F0000E
F0000E
F0000E
70001E
78001E
78003E
3C003E
3F00FE
1FC3FE
0FFFEE
03FF8E
00FE0E
ENDCHAR
STARTCHAR 0065
ENCODING 101
SWIDTH 576 0
DWIDTH 28 0
BBX 24 26 2 0
BITMAP
00FF00
03FFE0
0FFFF0
1FC3F8
3F007C
3C003E
78001E
78000F
70000F
F0000F
F00007
FFFFFF
FFFFFF
FFFFFF
F00000
F00000
F00000
700000
78000C
78000F
3C001E
1F007C
1FE7FC
0FFFF0
03FFE0
00FF00
ENDCHAR
STARTCHAR 0066
ENCODING 102
SWIDTH 349 0
DWIDTH 17 0
BBX 16 35 1 0
BITMAP
007F
01FF
03FF
03C0
0780
0780
0780
0780
0780
FFFF
FFFF
FFFF
0780
0780
0780
0780
0780
0780
0780
0780
0780
0780
0780
0780
0780
0780
0780
0780
0780
0780
0780
0780
0780
0780
0780
ENDCHAR
STARTCHAR 0067
ENCODING 103
SWIDTH 596 0
DWIDTH 29 0
BBX 23 37 2 -11
BITMAP
00FE0E
03FF8E
0FFFEE
1FC3FE
3F00FE
3C003E
7C003E
78001E
70001E
F0000E
F0000E
F0000E
F0000E
F0000E
F0000E
F0000E
F0000E
70001E
78001E
78003E
3C003E
3F00FE
1FC3FE
0FFFEE
03FF8E
00FE0E
00000E
00000E
00001E
00001E
08001E
3C003C
3E007C
1F81F8
0FFFF8
07FFE0
01FFC0
ENDCHAR
STARTCHAR 0068
ENCODING 104
SWIDTH 596 0
DWIDTH 29 0
BBX 23 35 3 0
BITMAP
F00000
F00000
F00000
F00000
F00000
F00000
F00000
F00000
F00000
F07F00
F1FFC0
F7FFE0
FFE7F0
FF00F8
FC007C
F8003C
F8003C
F8001E
F0001E
F0001E
F0001E
F0001E
F0001E
F0001E
F0001E
F0001E
F0001E
F0001E
F0001E
F0001E
F0001E
F0001E
F0001E
F0001E
F0001E
ENDCHAR
STARTCHAR 0069
ENCODING 105
SWIDTH 226 0
DWIDTH 11 0
BBX 3 35 4 0
BITMAP
E0
E0
E0
E0
00
00
00
00
00
E0
E0
E0
E0
E0
E0
E0
E0
E0
E0
E0
E0
E0
E0
E0
E0
E0
E0
E0
E0
E0
E0
E0
E0
E0
E0
ENDCHAR
STARTCHAR 006A
ENCODING 106
SWIDTH 246 0
DWIDTH 12 0
BBX 9 46 -1 -11
BITMAP
0380
0380
0380
0380
0000
0000
0000
0000
0000
0380
0380
0380
0380
0380
0380
0380
0380
0380
0380
0380
0380
0380
0380
0380
0380
0380
0380
0380
0380
0380
0380
0380
0380
0380
0380
0380
0380
0380
0380
0380
0380
0780
0F80
FF80
FF00
FE00
ENDCHAR
STARTCHAR 006B
ENCODING 107
SWIDTH 493 0
DWIDTH 24 0
BBX 22 35 3 0
BITMAP
F00000
F00000
F00000
F00000
F00000
F00000
F00000
F00000
F00000
F001F0
F003E0
F007C0
F00F80
F01F00
F01E00
F03C00
F07800
F0F000
F1F000
F3E000
F7C000
FF8000
FF8000
F7C000
F3E000
F1F000
F0F800
F07C00
F03E00
F01F00
F00F80
F007C0
F003E0
F001F0
F000FC
ENDCHAR
STARTCHAR 006C
ENCODING 108
SWIDTH 226 0
DWIDTH 11 0
BBX 3 35 4 0
BITMAP
E0
E0
E0
E0
E0
E0
E0
E0
E0
E0
E0
E0
E0
E0
E0
E0
E0
E0
E0
E0
E0
E0
E0
E0
E0
E0
E0
E0
E0
E0
E0
E0
E0
E0
E0
ENDCHAR
STARTCHAR 006D
ENCODING 109
SWIDTH 843 0
DWIDTH 41 0
BBX 35 26 3 0
BITMAP
F0FC01FC00
F3FF07FF00
FFFF8FFF80
FF8FDF1FC0
FC03FC03C0
F801F801E0
F801F001E0
F000F001E0
F000F000E0
F000F000E0
F000F000E0
F000F000E0
F000F000E0
F000F000E0
F000F000E0
F000F000E0
F000F000E0
F000F000E0
F000F000E0
F000F000E0
F000F000E0
F000F000E0
F000F000E0
F000F000E0
F000F000E0
F000F000E0
ENDCHAR
STARTCHAR 006E
ENCODING 110
SWIDTH 596 0
DWIDTH 29 0
BBX 23 26 3 0
BITMAP
F07F00
F1FFC0
F7FFE0
FFE7F0
FF00F8
FC007C
F8003C
F8003C
F0001E
F0001E
F0001E
F0001E
F0001E
F0001E
F0001E
F0001E
F0001E
F0001E
F0001E
F0001E
F0001E
F0001E
F0001E
F0001E
F0001E
F0001E
ENDCHAR
STARTCHAR 006F
ENCODING 111
SWIDTH 596 0
DWIDTH 29 0
BBX 25 26 2 0
BITMAP
00FF0000
03FFE000
0FFFF000
1FF7F800
1F007C00
3C003E00
7C001E00
78000F00
70000F00
F0000700
F0000780
F0000780
F0000780
F0000780
F0000780
F0000780
F0000700
78000F00
78000F00
7C001E00
3C003E00
3F007C00
1FE7F800
0FFFF000
03FFE000
007F0000
ENDCHAR
STARTCHAR 0070
ENCODING 112
SWIDTH 596 0
DWIDTH 29 0
BBX 24 37 3 -11
BITMAP
F07F00
F1FFC0
F7FFE0
FFC7F0
FE00F8
FC007C
F8003C
F8001E
F0001E
F0000E
F0000F
F0000F
F0000F
F0000F
F0000F
F0000F
F0000E
F0001E
F8001E
F8003C
FC007C
FE00F8
FFC7F8
F7FFE0
F1FFC0
F07F00
F00000
F00000
F00000
F00000
F00000
F00000
F00000
F00000
F00000
F00000
F00000
ENDCHAR
STARTCHAR 0071
ENCODING 113
SWIDTH 596 0
DWIDTH 29 0
BBX 23 37 2 -11
BITMAP
00FE0E
03FF8E
0FFFEE
1FC3FE
3F00FE
3C003E
7C003E
78001E
70001E
F0000E
F0000E
F0000E
F0000E
F0000E
F0000E
F0000E
F0000E
70001E
78001E
78003E
3C003E
3F00FE
1FC3FE
0FFFEE
03FF8E
00FE0E
00000E
00000E
00000E
00000E
00000E
00000E
00000E
00000E
00000E
00000E
00000E
ENDCHAR
STARTCHAR 0072
ENCODING 114
SWIDTH 370 0
DWIDTH 18 0
BBX 13 26 3 0
BITMAP
F0F8
F3F8
F7F8
FFC0
FE00
FC00
F800
F800
F800
F000
F000
F000
F000
F000
F000
F000
F000
F000
F000
F000
F000
F000
F000
F000
F000
F000
ENDCHAR
STARTCHAR 0073
ENCODING 115
SWIDTH 534 0
DWIDTH 26 0
BBX 22 26 2 0
BITMAP
01FE00
0FFF80
1FFFE0
3F0FF0
7C01F0
780078
700078
700030
780000
7C0000
3F8000
1FF800
07FF00
007FE0
000FF0
0001F8
000078
000038
30003C
F00038
F80078
7C00F8
3F83F0
1FFFE0
0FFFC0
01FE00
ENDCHAR
STARTCHAR 0074
ENCODING 116
SWIDTH 390 0
DWIDTH 19 0
BBX 18 33 0 -1
BITMAP
03C000
03C000
03C000
03C000
03C000
03C000
03C000
FFFFC0
FFFFC0
FFFFC0
03C000
03C000
03C000
03C000
03C000
03C000
03C000
03C000
03C000
03C000
03C000
03C000
03C000
03C000
03C000
03C000
03C000
03C000
03E000
01F000
00FFC0
007FC0
001FC0
ENDCHAR
STARTCHAR 0075
ENCODING 117
SWIDTH 596 0
DWIDTH 29 0
BBX 22 26 3 0
BITMAP
F0001C
F0001C
F0001C
F0001C
F0001C
F0001C
F0001C
F0001C
F0001C
F0001C
F0001C
F0001C
F0001C
F0001C
F0001C
F0001C
F0001C
F0003C
70003C
78007C
7C007C
3E01FC
1FCFFC
1FFFDC
07FF1C
01FC1C
ENDCHAR
STARTCHAR 0076
ENCODING 118
SWIDTH 514 0
DWIDTH 25 0
BBX 23 26 1 0
BITMAP
F0001E
70003C
78003C
780038
380078
3C0078
3C0070
1C00F0
1E00F0
1E00E0
0E01E0
0F01E0
0701C0
0703C0
078380
038780
03C780
03C700
01CF00
01EF00
01EE00
00FE00
00FC00
007C00
007C00
007800
ENDCHAR
STARTCHAR 0077
ENCODING 119
SWIDTH 761 0
DWIDTH 37 0
BBX 35 26 1 0
BITMAP
F000E000E0
F000F001E0
7001F001E0
7801F001C0
7801F803C0
3803F803C0
3C03B80380
3C03BC0780
1C079C0780
1C071C0700
1E071E0700
0E0F0E0F00
0E0E0E0E00
0F0E0E0E00
0F0E071E00
071C071E00
079C071C00
079C07BC00
03B803BC00
03F803B800
03F803F800
01F801F800
01F001F000
01F001F000
00F000F000
00E000E000
ENDCHAR
STARTCHAR 0078
ENCODING 120
SWIDTH 534 0
DWIDTH 26 0
BBX 24 26 1 0
BITMAP
F0001F
78003E
3C003C
3E0078
1E00F0
0F01F0
0781E0
03C3C0
03E780
01EF00
00FF00
007E00
007C00
007C00
00FE00
00FF00
01E780
03C780
07C3C0
0781E0
0F00F0
1E00F8
3C0078
7C003C
78001E
F0001F
ENDCHAR
STARTCHAR 0079
ENCODING 121
SWIDTH 534 0
DWIDTH 26 0
BBX 24 38 1 -12
BITMAP
F0000F
F0000E
78001E
78001E
38003C
3C003C
3C0038
1E0078
1E0078
0E0070
0F00F0
0F00F0
0780E0
0781E0
0381C0
03C3C0
01C3C0
01E380
01E780
00E780
00F700
007F00
007E00
007E00
003E00
003C00
003C00
003C00
003800
007800
007000
007000
00F000
00E000
01E000
01E000
01C000
03C000
ENDCHAR
STARTCHAR 007A
ENCODING 122
SWIDTH 534 0
DWIDTH 26 0
BBX 23 26 1 0
BITMAP
7FFFFE
7FFFFC
7FFFF8
000078
0000F0
0001E0
0003C0
0003C0
000780
000F00
001E00
001E00
003C00
007800
00F000
01E000
01E000
03C000
078000
0F0000
0F0000
1E0000
3C0000
7FFFFC
7FFFFC
FFFFFC
ENDCHAR
STARTCHAR 007B
ENCODING 123
SWIDTH 411 0
DWIDTH 20 0
BBX 11 53 7 -10
BITMAP
03E0
0FE0
1FE0
1F00
1C00
1C00
1C00
1C00
1C00
1C00
1C00
1C00
1C00
1C00
1C00
1C00
1C00
1C00
1C00
1C00
1C00
1C00
3C00
3C00
7800
F000
F000
F000
7800
7800
3C00
1C00
1C00
1C00
1C00
1C00
1C00
1C00
1C00
1C00
1C00
1C00
1C00
1C00
1C00
1C00
1C00
1C00
1C00
1E00
1FE0
0FE0
07E0
ENDCHAR
STARTCHAR 007C
ENCODING 124
SWIDTH 246 0
DWIDTH 12 0
BBX 4 35 4 0
BITMAP
F0
F0
F0
F0
F0
F0
F0
F0
F0
F0
F0
F0
F0
F0
F0
F0
F0
F0
F0
F0
F0
F0
F0
F0
F0
F0
F0
F0
F0
F0
F0
F0
F0
F0
F0
ENDCHAR
STARTCHAR 007D
ENCODING 125
SWIDTH 411 0
DWIDTH 20 0
BBX 12 53 2 -10
BITMAP
F800
FE00
FF00
1F00
0780
0780
0780
0780
0780
0780
0780
0780
0780
0780
0780
0780
0780
0780
0780
0780
0780
0780
0780
03C0
03C0
01E0
00F0
01E0
03E0
03C0
0380
0780
0780
0780
0780
0780
0780
0780
0780
0780
0780
0780
0780
0780
0780
0780
0780
0780
0780
0F80
FF00
FE00
FC00
ENDCHAR
STARTCHAR 007E
ENCODING 126
SWIDTH 658 0
DWIDTH 32 0
BBX 21 8 6 11
BITMAP
3F0000
7FC070
FFE078
FFF8F0
F1FFF0
E07FF0
E01FE0
0007C0
ENDCHAR
STARTCHAR 00A0
ENCODING 160
SWIDTH 205 0
DWIDTH 10 0
BBX 0 0 0 0
BITMAP
ENDCHAR
STARTCHAR 00A1
ENCODING 161
SWIDTH 308 0
DWIDTH 15 0
BBX 3 35 6 -9
BITMAP
E0
E0
E0
E0
00
00
00
00
00
E0
E0
E0
E0
E0
E0
E0
E0
E0
E0
E0
E0
E0
E0
E0
E0
E0
E0
E0
E0
E0
E0
E0
E0
E0
E0
ENDCHAR
STARTCHAR 00A2
ENCODING 162
SWIDTH 555 0
DWIDTH 27 0
BBX 23 37 2 -2
BITMAP
001C00
001C00
001C00
001C00
001C00
01FFC0
07FFE0
0FFFF8
1F80FC
3E007C
3C003E
78001E
780008
700000
F00000
F00000
F00000
F00000
F00000
F00000
F00000
F00000
F00000
780000
780008
7C001E
3C003E
3E007C
1F81F8
0FFFF0
07FFE0
01FF80
001C00
001C00
001C00
001C00
001C00
ENDCHAR
STARTCHAR 00A3
ENCODING 163
SWIDTH 576 0
DWIDTH 28 0
BBX 24 35 2 0
BITMAP
000FC0
007FF0
00FFF8
01FDFC
01E03C
03C01E
03C00E
03800F
03800F
038000
038000
038000
038000
038000
038000
038000
FFFFC0
FFFFC0
FFFFC0
038000
038000
038000
038000
038000
038000
038000
038000
038000
038000
078000
078000
3F8000
FFFFFE
FFFFFE
FFFFFE
ENDCHAR
STARTCHAR 00A4
ENCODING 164
SWIDTH 637 0
DWIDTH 31 0
BBX 27 27 2 4
BITMAP
600000C0
F07FC1E0
F9FFF3E0
7FFFFFC0
3FE0FF80
1F001F00
1E000F00
3C000780
38000380
780003C0
780001C0
700001C0
700001C0
700001C0
700001C0
700001C0
780001C0
780003C0
38000380
3C000780
1E000F00
1F001F00
3FE07F80
7FFFFFC0
F9FFF3E0
F07FC1E0
600000C0
ENDCHAR
STARTCHAR 00A5
ENCODING 165
SWIDTH 555 0
DWIDTH 27 0
BBX 27 35 0 0
BITMAP
F00001E0
780003C0
7C0007C0
3C000780
1E000F00
1E000F00
0F001E00
0F803E00
07803C00
03C07800
03C07800
01E0F000
01F0F000
00F1E000
007BE000
007BC000
003F8000
003F8000
001F0000
0FFFFE00
0FFFFE00
0FFFFE00
000E0000
000E0000
000E0000
000E0000
0FFFFE00
0FFFFE00
0FFFFE00
000E0000
000E0000
000E0000
000E0000
000E0000
000E0000
ENDCHAR
STARTCHAR 00A6
ENCODING 166
SWIDTH 246 0
DWIDTH 12 0
BBX 4 43 4 -8
BITMAP
F0
F0
F0
F0
F0
F0
F0
F0
F0
F0
F0
F0
F0
F0
F0
F0
F0
F0
00
00
00
00
00
00
00
F0
F0
F0
F0
F0
F0
F0
F0
F0
F0
F0
F0
F0
F0
F0
F0
F0
F0
ENDCHAR
STARTCHAR 00A7
ENCODING 167
SWIDTH 534 0
DWIDTH 26 0
BBX 22 39 2 -7
BITMAP
01FC00
07FF00
1FFFC0
3F0FE0
3C03E0
7801F0
7800F0
7800F0
780000
7C0000
3E0000
1FE000
0FFC00
07FF80
1FFFE0
3C07F0
7800F8
70007C
F0003C
F0003C
F0003C
78003C
7E0078
3FC0F8
0FFFF0
03FFE0
007FE0
0007F0
0001F0
000078
000078
000078
780078
780078
3E00F0
3F83F0
1FFFE0
07FFC0
01FF00
ENDCHAR
STARTCHAR 00A8
ENCODING 168
SWIDTH 514 0
DWIDTH 25 0
BBX 13 4 6 40
BITMAP
F078
F078
F078
F078
ENDCHAR
STARTCHAR 00A9
ENCODING 169
SWIDTH 802 0
DWIDTH 39 0
BBX 37 36 1 -1
BITMAP
0003FE0000
001FFFC000
007FFFF000
00FFFFF800
01F800FC00
03E0003E00
07C0001F00
0F80000F80
1F01FC07C0
1E07FF03C0
3C0FFF81E0
3C1F07C1E0
781E01E0F0
783C01E0F0
7038000070
7038000070
7038000070
F038000078
F078000078
F038000078
7038000070
7038000070
70380000F0
783C01E0F0
781E01C0F0
3C0F07C1E0
3C0FFF81E0
1E03FF03C0
1F00FC07C0
0F80000F80
07C0001F00
03F0007E00
01FE03FC00
00FFFFF800
003FFFE000
0007FF8000
ENDCHAR
STARTCHAR 00AA
ENCODING 170
SWIDTH 308 0
DWIDTH 15 0
BBX 11 14 2 13
BITMAP
1F80
3FC0
79E0
60E0
0060
03E0
3FE0
7F60
E060
E060
C0E0
E1E0
7F60
3C00
ENDCHAR
STARTCHAR 00AB
ENCODING 171
SWIDTH 534 0
DWIDTH 26 0
BBX 19 21 4 3
BITMAP
008080
01C1E0
03C1C0
078380
070780
0E0F00
1E1E00
3C1C00
383800
707800
E0F000
707000
783800
3C1C00
1E1E00
0E0F00
070700
078380
03C1C0
01C1E0
008080
ENDCHAR
STARTCHAR 00AC
ENCODING 172
SWIDTH 596 0
DWIDTH 29 0
BBX 23 9 3 10
BITMAP
FFFFFE
FFFFFE
FFFFFE
00000E
00000E
00000E
00000E
00000E
00000E
ENDCHAR
STARTCHAR 00AD
ENCODING 173
SWIDTH 411 0
DWIDTH 20 0
BBX 15 3 3 14
BITMAP
FFFE
FFFE
FFFE
ENDCHAR
STARTCHAR 00AE
ENCODING 174
SWIDTH 617 0
DWIDTH 30 0
BBX 24 24 3 14
BITMAP
003E00
01FF80
07FFE0
0F81F0
1E0078
3C003C
38FE1E
70FF0E
70C38E
70C187
E0C187
E0C387
E0FF07
E0FE07
60C607
70C306
70C30E
38C19E
3C001C
1E0078
0F80F8
07FFE0
03FFC0
007F00
ENDCHAR
STARTCHAR 00AF
ENCODING 175
SWIDTH 493 0
DWIDTH 24 0
BBX 12 3 6 41
BITMAP
FFF0
FFF0
FFF0
ENDCHAR
STARTCHAR 00B0
ENCODING 176
SWIDTH 452 0
DWIDTH 22 0
BBX 18 17 1 18
BITMAP
03F000
0FFC00
1FFE00
3F1F00
3C0780
780380
7003C0
7001C0
F001C0
F001C0
7003C0
780380
780780
3E1F00
1FFF00
0FFC00
03F800
ENDCHAR
STARTCHAR 00B1
ENCODING 177
SWIDTH 596 0
DWIDTH 29 0
BBX 23 22 3 4
BITMAP
003800
003800
003800
003800
003800
003800
FFFFFE
FFFFFE
FFFFFE
003800
003800
003800
003800
003800
003800
000000
000000
000000
000000
FFFFFE
FFFFFE
FFFFFE
ENDCHAR
STARTCHAR 00B2
ENCODING 178
SWIDTH 390 0
DWIDTH 19 0
BBX 15 22 2 13
BITMAP
07E0
1FF0
3FF8
781C
701E
700E
600E
000E
000E
001E
001C
0038
00F0
01E0
03C0
0780
0F00
1E00
3C00
7FFE
FFFE
FFFE
ENDCHAR
STARTCHAR 00B3
ENCODING 179
SWIDTH 390 0
DWIDTH 19 0
BBX 14 23 2 12
BITMAP
7FFC
7FFC
7FFC
0078
00F0
01E0
03C0
0780
0F00
1FC0
0FF0
0CF8
0038
001C
001C
001C
001C
601C
E038
7878
3FF0
1FE0
0300
ENDCHAR
STARTCHAR 00B4
ENCODING 180
SWIDTH 493 0
DWIDTH 24 0
BBX 5 8 10 39
BITMAP
38
38
38
70
70
F0
E0
E0
ENDCHAR
STARTCHAR 00B5
ENCODING 181
SWIDTH 596 0
DWIDTH 29 0
BBX 23 37 3 -11
BITMAP
F0001E
F0001E
F0001E
F0001E
F0001E
F0001E
F0001E
F0001E
F0001E
F0001E
F0001E
F0001E
F0001E
F0001E
F0001E
F0001E
F0001E
F8001E
F8003E
F8003E
FC007E
FE00FE
FFC7EE
FFFFCE
F3FF8E
F0FE0E
F00000
F00000
F00000
F00000
F00000
F00000
F00000
F00000
F00000
F00000
F00000
ENDCHAR
STARTCHAR 00B6
ENCODING 182
SWIDTH 637 0
DWIDTH 31 0
BBX 23 42 4 -7
BITMAP
01FF0E
0FFF0E
1FFF0E
3FFF0E
7FFF0E
7FFF0E
FFFF0E
FFFF0E
FFFF0E
FFFF0E
FFFF0E
FFFF0E
FFFF0E
FFFF0E
FFFF0E
FFFF0E
7FFF0E
7FFF0E
3FFF0E
1FFF0E
07FF0E
00FF0E
00070E
00070E
00070E
00070E
00070E
00070E
00070E
00070E
00070E
00070E
00070E
00070E
00070E
00070E
00070E
00070E
00070E
00070E
00070E
00070E
ENDCHAR
STARTCHAR 00B7
ENCODING 183
SWIDTH 226 0
DWIDTH 11 0
BBX 5 5 3 13
BITMAP
70
F8
F8
F8
70
ENDCHAR
STARTCHAR 00B8
ENCODING 184
SWIDTH 390 0
DWIDTH 19 0
BBX 8 12 6 -12
BITMAP
1C
18
38
38
7E
0E
0E
07
0E
FE
FC
70
ENDCHAR
STARTCHAR 00B9
ENCODING 185
SWIDTH 329 0
DWIDTH 16 0
BBX 7 22 3 13
BITMAP
1E
3E
FE
EE
CE
0E
0E
0E
0E
0E
0E
0E
0E
0E
0E
0E
0E
0E
0E
0E
0E
0E
ENDCHAR
STARTCHAR 00BA
ENCODING 186
SWIDTH 349 0
DWIDTH 17 0
BBX 13 13 2 13
BITMAP
0F80
3FE0
7DF0
7070
E038
E038
E038
E038
E038
E070
70F0
3FE0
1FC0
ENDCHAR
STARTCHAR 00BB
ENCODING 187
SWIDTH 534 0
DWIDTH 26 0
BBX 19 21 3 3
BITMAP
202000
F07000
707800
383C00
3C1C00
1E0E00
0F0F00
070780
0383C0
03C1C0
01E0E0
01C1C0
0383C0
070780
0F0700
1E0E00
1C1C00
383C00
707800
F07000
202000
ENDCHAR
STARTCHAR 00BC
ENCODING 188
SWIDTH 966 0
DWIDTH 47 0
BBX 38 35 3 0
BITMAP
1E00000400
3E00000E00
FE00001E00
EE00001E00
CE00003C00
0E00007800
0E0000F000
0E0000E000
0E0001E000
0E0003C000
0E00078000
0E000F0000
0E000F0000
0E001E03C0
0E003C0380
0E00780380
0E00780700
0E00F00700
0E01E00E00
0E03C00E00
0E03801C00
0E07801C00
000F003870
001E003870
003C007070
003C007070
007800E070
00F000E070
01E001FFFC
01C001FFFC
03C001FFFC
0780000070
0F00000070
0E00000070
0200000070
ENDCHAR
STARTCHAR 00BD
ENCODING 189
SWIDTH 925 0
DWIDTH 45 0
BBX 40 35 3 0
BITMAP
1E00000400
7E00000E00
FE00001E00
EE00001C00
8E00003C00
0E00007800
0E0000F000
0E0000E000
0E0001E000
0E0003C000
0E00078000
0E000F0000
0E000F00C0
0E001E07F8
0E003C1FFC
0E00781E1E
0E0070380E
0E00F03807
0E01E03007
0E03C07007
0E03800007
0E07800007
000F00000E
001E00001E
003C00003C
003C000078
00780000F0
00F00001E0
01E00003C0
01C0000780
03C0000F00
0780001E00
0F00007FFF
0E00007FFF
0200007FFF
ENDCHAR
STARTCHAR 00BE
ENCODING 190
SWIDTH 987 0
DWIDTH 48 0
BBX 43 35 2 0
BITMAP
7FFC00004000
7FFC0000E000
7FFC0000F000
00780001E000
00F00003C000
01E000078000
03C000078000
0780000F0000
0F00001E0000
1FC0003C0000
0FF0003C0000
0CF800780000
003800F00000
001C01E00000
001C03C03C00
001C03C03800
001C07807800
601C0F007000
E0381E00F000
78781E00E000
3FF03C00E000
1FE07801C000
0300F001C300
0000E0038300
0001E0038300
0003C0070300
000780070300
000F000E0300
000F000FFFE0
001E000FFFE0
003C000FFFE0
007800000300
007800000300
007000000300
002000000300
ENDCHAR
STARTCHAR 00BF
ENCODING 191
SWIDTH 514 0
DWIDTH 25 0
BBX 21 35 2 -9
BITMAP
007800
007800
007800
007800
007800
000000
000000
000000
000000
000000
007800
007800
007800
007800
007800
00F000
01F000
07E000
0FC000
1F0000
3E0000
3C0000
780000
780000
700000
F00000
F00078
F00078
780078
7800F0
7C01F0
3F03E0
1FFFC0
0FFF80
03FF00
ENDCHAR
STARTCHAR 00C0
ENCODING 192
SWIDTH 637 0
DWIDTH 31 0
BBX 29 47 1 0
BITMAP
00380000
00380000
00380000
001C0000
001C0000
000E0000
000E0000
000E0000
00000000
00000000
00000000
00000000
000F8000
001F8000
001FC000
001FC000
003DC000
003DE000
003DE000
0078E000
0078F000
0078F000
00F07000
00F07800
00E07800
01E03800
01E03C00
01C03C00
03C01C00
03C01E00
03801E00
07800E00
07800F00
07000F00
0F000780
0FFFFF80
0FFFFF80
1FFFFFC0
1E0003C0
1C0001C0
3C0001E0
3C0001E0
380000E0
780000F0
780000F0
F0000070
F0000078
ENDCHAR
STARTCHAR 00C1
ENCODING 193
SWIDTH 637 0
DWIDTH 31 0
BBX 29 47 1 0
BITMAP
0000E000
0000E000
0001C000
0001C000
0003C000
00038000
00038000
00070000
00000000
00000000
00000000
00000000
000F8000
001F8000
001FC000
001FC000
003DC000
003DE000
003DE000
0078E000
0078F000
0070F000
00F07000
00F07800
00E07800
01E03800
01E03C00
01C03C00
03C01C00
03C01E00
03801E00
07800E00
07800F00
07000F00
0F000780
0FFFFF80
0FFFFF80
1FFFFFC0
1E0003C0
1C0001C0
3C0001E0
3C0001E0
380000E0
780000F0
780000F0
F0000070
F0000078
ENDCHAR
STARTCHAR 00C2
ENCODING 194
SWIDTH 637 0
DWIDTH 31 0
BBX 29 46 1 0
BITMAP
00070000
000F8000
001FC000
003DE000
0078F000
00F07000
00E03800
00000000
00000000
00000000
00000000
000F8000
001F8000
001FC000
001FC000
003DC000
003DE000
003DE000
0078E000
0078F000
0070F000
00F07000
00F07800
00E07800
01E03800
01E03C00
01C03C00
03C01C00
03C01E00
03801E00
07800E00
07800F00
07000F00
0F000780
0FFFFF80
0FFFFF80
1FFFFFC0
1E0003C0
1C0001C0
3C0001E0
3C0001E0
380000E0
780000F0
780000F0
F0000070
F0000078
ENDCHAR
STARTCHAR 00C3
ENCODING 195
SWIDTH 637 0
DWIDTH 31 0
BBX 29 46 1 0
BITMAP
00780000
00FE1C00
01FF9C00
01C7FC00
01C3F800
0000F000
00000000
00000000
00000000
00000000
00000000
000F8000
001F8000
001FC000
001FC000
003DC000
003DE000
003DE000
0078E000
0078F000
0070F000
00F07000
00F07800
00E07800
01E03800
01E03C00
01C03C00
03C01C00
03C01E00
03801E00
07800E00
07800F00
07000F00
0F000780
0FFFFF80
0FFFFF80
1FFFFFC0
1E0003C0
1C0001C0
3C0001E0
3C0001E0
380000E0
780000F0
780000F0
F0000070
F0000078
ENDCHAR
STARTCHAR 00C4
ENCODING 196
SWIDTH 637 0
DWIDTH 31 0
BBX 29 44 1 0
BITMAP
00F07800
00F07800
00F07800
00F07800
00000000
00000000
00000000
00000000
00000000
000F8000
001F8000
001FC000
001FC000
003DC000
003DE000
003DE000
0078E000
0078F000
0070F000
00F07000
00F07800
00E07800
01E03800
01E03C00
01C03C00
03C01C00
03C01E00
03801E00
07800E00
07800F00
07000F00
0F000780
0FFFFF80
0FFFFF80
1FFFFFC0
1E0003C0
1C0001C0
3C0001E0
3C0001E0
380000E0
780000F0
780000F0
F0000070
F0000078
ENDCHAR
STARTCHAR 00C5
ENCODING 197
SWIDTH 637 0
DWIDTH 31 0
BBX 29 49 1 0
BITMAP
00020000
001FC000
003FE000
0038E000
00707000
00707000
00707000
0070E000
003FE000
001FC000
000F8000
00000000
00000000
00000000
000F8000
001F8000
001FC000
001FC000
003DC000
003DE000
003DE000
0078E000
0078F000
0070F000
00F07000
00F07800
00E07800
01E03800
01E03C00
01C03C00
03C01C00
03C01E00
03801E00
07800E00
07800F00
07000F00
0F000780
0FFFFF80
0FFFFF80
1FFFFFC0
1E0003C0
1C0001C0
3C0001E0
3C0001E0
380000E0
780000F0
780000F0
F0000070
F0000078
ENDCHAR
STARTCHAR 00C6
ENCODING 198
SWIDTH 925 0
DWIDTH 45 0
BBX 41 35 1 0
BITMAP
000FFFFFFF80
001FFFFFFF80
001FFFFFFF80
001E1E000000
003C1E000000
003C1E000000
00381E000000
00781E000000
00781E000000
00701E000000
00F01E000000
00F01E000000
00E01E000000
01E01E000000
01E01E000000
01C01E000000
03C01FFFFC00
03C01FFFFC00
03801FFFFC00
07801E000000
07801E000000
07001E000000
0F001E000000
0FFFFE000000
0FFFFE000000
1FFFFE000000
1E001E000000
1C001E000000
3C001E000000
3C001E000000
38001E000000
78001E000000
78001FFFFF80
F0001FFFFF80
F0001FFFFF80
ENDCHAR
STARTCHAR 00C7
ENCODING 199
SWIDTH 720 0
DWIDTH 35 0
BBX 32 46 1 -11
BITMAP
000FF800
007FFF00
01FFFFC0
03FF3FE0
07E003F0
0F8000F8
1F00007C
1E00003C
3E00001E
3C00001E
7800000F
7800000C
78000000
78000000
70000000
70000000
F0000000
F0000000
F0000000
F0000000
70000000
78000000
78000000
7800000C
7800000F
3C00001E
3C00001E
1E00003C
1F00007C
0F8000F8
07E003F0
03FF3FE0
01FFFFC0
007FFF00
000FF800
0000C000
0000C000
0001C000
0001F000
00007000
00003800
00003800
00007800
0003F000
0007F000
0003C000
ENDCHAR
STARTCHAR 00C8
ENCODING 200
SWIDTH 576 0
DWIDTH 28 0
BBX 22 47 3 0
BITMAP
00E000
00E000
00F000
007000
007000
003800
003800
003800
000000
000000
000000
000000
FFFFFC
FFFFFC
FFFFFC
F00000
F00000
F00000
F00000
F00000
F00000
F00000
F00000
F00000
F00000
F00000
F00000
F00000
FFFFE0
FFFFE0
FFFFE0
F00000
F00000
F00000
F00000
F00000
F00000
F00000
F00000
F00000
F00000
F00000
F00000
F00000
FFFFFC
FFFFFC
FFFFFC
ENDCHAR
STARTCHAR 00C9
ENCODING 201
SWIDTH 576 0
DWIDTH 28 0
BBX 22 47 3 0
BITMAP
000700
000700
000F00
000E00
000E00
001C00
001C00
001C00
000000
000000
000000
000000
FFFFFC
FFFFFC
FFFFFC
F00000
F00000
F00000
F00000
F00000
F00000
F00000
F00000
F00000
F00000
F00000
F00000
F00000
FFFFE0
FFFFE0
FFFFE0
F00000
F00000
F00000
F00000
F00000
F00000
F00000
F00000
F00000
F00000
F00000
F00000
F00000
FFFFFC
FFFFFC
FFFFFC
ENDCHAR
STARTCHAR 00CA
ENCODING 202
SWIDTH 576 0
DWIDTH 28 0
BBX 22 46 3 0
BITMAP
007800
00FC00
00FC00
01CE00
03CF00
078780
0F03C0
000000
000000
000000
000000
FFFFFC
FFFFFC
FFFFFC
F00000
F00000
F00000
F00000
F00000
F00000
F00000
F00000
F00000
F00000
F00000
F00000
F00000
FFFFE0
FFFFE0
FFFFE0
F00000
F00000
F00000
F00000
F00000
F00000
F00000
F00000
F00000
F00000
F00000
F00000
F00000
FFFFFC
FFFFFC
FFFFFC
ENDCHAR
STARTCHAR 00CB
ENCODING 203
SWIDTH 576 0
DWIDTH 28 0
BBX 22 44 3 0
BITMAP
0F0380
0F0380
0F0380
0F0380
000000
000000
000000
000000
000000
FFFFFC
FFFFFC
FFFFFC
F00000
F00000
F00000
F00000
F00000
F00000
F00000
F00000
F00000
F00000
F00000
F00000
F00000
FFFFE0
FFFFE0
FFFFE0
F00000
F00000
F00000
F00000
F00000
F00000
F00000
F00000
F00000
F00000
F00000
F00000
F00000
FFFFFC
FFFFFC
FFFFFC
ENDCHAR
STARTCHAR 00CC
ENCODING 204
SWIDTH 226 0
DWIDTH 11 0
BBX 6 47 1 0
BITMAP
E0
70
70
70
38
38
3C
1C
00
00
00
00
1C
1C
1C
1C
1C
1C
1C
1C
1C
1C
1C
1C
1C
1C
1C
1C
1C
1C
1C
1C
1C
1C
1C
1C
1C
1C
1C
1C
1C
1C
1C
1C
1C
1C
1C
ENDCHAR
STARTCHAR 00CD
ENCODING 205
SWIDTH 226 0
DWIDTH 11 0
BBX 6 47 4 0
BITMAP
1C
1C
38
38
38
70
70
E0
00
00
00
00
E0
E0
E0
E0
E0
E0
E0
E0
E0
E0
E0
E0
E0
E0
E0
E0
E0
E0
E0
E0
E0
E0
E0
E0
E0
E0
E0
E0
E0
E0
E0
E0
E0
E0
E0
ENDCHAR
STARTCHAR 00CE
ENCODING 206
SWIDTH 226 0
DWIDTH 11 0
BBX 13 46 -1 0
BITMAP
0700
0F80
1FC0
3DE0
38F0
7078
E038
0000
0000
0000
0000
0700
0700
0700
0700
0700
0700
0700
0700
0700
0700
0700
0700
0700
0700
0700
0700
0700
0700
0700
0700
0700
0700
0700
0700
0700
0700
0700
0700
0700
0700
0700
0700
0700
0700
0700
ENDCHAR
STARTCHAR 00CF
ENCODING 207
SWIDTH 226 0
DWIDTH 11 0
BBX 13 44 -1 0
BITMAP
F078
F078
F078
F078
0000
0000
0000
0000
0000
0700
0700
0700
0700
0700
0700
0700
0700
0700
0700
0700
0700
0700
0700
0700
0700
0700
0700
0700
0700
0700
0700
0700
0700
0700
0700
0700
0700
0700
0700
0700
0700
0700
0700
0700
ENDCHAR
STARTCHAR 00D0
ENCODING 208
SWIDTH 658 0
DWIDTH 32 0
BBX 30 35 0 0
BITMAP
1FFFF000
1FFFFC00
1FFFFF00
1E01FF80
1E000FC0
1E0003E0
1E0001F0
1E0000F0
1E0000F8
1E000078
1E000078
1E00003C
1E00003C
1E00003C
1E00003C
1E00003C
FFFF003C
FFFF003C
FFFF003C
1E00003C
1E00003C
1E00003C
1E00003C
1E00003C
1E000078
1E000078
1E0000F8
1E0000F0
1E0001F0
1E0003E0
1E000FC0
1E01FF80
1FFFFF00
1FFFFC00
1FFFF000
ENDCHAR
STARTCHAR 00D1
ENCODING 209
SWIDTH 678 0
DWIDTH 33 0
BBX 27 45 3 0
BITMAP
00700000
00FC1C00
01FF1C00
01CFF800
0183F800
0000F000
00000000
00000000
00000000
00000000
F00001E0
F80001E0
FC0001E0
FC0001E0
FE0001E0
FF0001E0
FF0001E0
F78001E0
F7C001E0
F3C001E0
F1E001E0
F1F001E0
F0F001E0
F07801E0
F07C01E0
F03C01E0
F01E01E0
F00F01E0
F00F01E0
F00781E0
F003C1E0
F003C1E0
F001E1E0
F000F1E0
F000F1E0
F00079E0
F0003DE0
F0003DE0
F0001FE0
F0000FE0
F0000FE0
F00007E0
F00003E0
F00003E0
F00001E0
ENDCHAR
STARTCHAR 00D2
ENCODING 210
SWIDTH 720 0
DWIDTH 35 0
BBX 33 46 1 0
BITMAP
000E000000
0007000000
0007000000
0007000000
0003800000
0003800000
0001C00000
0001C00000
0000000000
0000000000
0000000000
000FF80000
007FFF0000
01FFFFC000
03FF7FE000
07E003F000
0F8000F800
1F00007C00
1E00003C00
3C00001E00
3C00001E00
7800000F00
7800000F00
7800000F00
7800000700
7000000780
7000000780
F000000780
F000000780
F000000780
F000000780
7000000780
7800000700
7800000F00
7800000F00
7800000F00
3C00001E00
3C00001E00
1E00003C00
1F00007C00
0F8000F800
07E003F000
03FF3FE000
01FFFFC000
007FFF0000
000FF80000
ENDCHAR
STARTCHAR 00D3
ENCODING 211
SWIDTH 720 0
DWIDTH 35 0
BBX 33 46 1 0
BITMAP
0000380000
0000380000
0000700000
0000700000
0000700000
0000E00000
0000E00000
0001E00000
0000000000
0000000000
0000000000
000FF80000
007FFF0000
01FFFFC000
03FF7FE000
07E003F000
0F8000F800
1F00007C00
1E00003C00
3C00001E00
3C00001E00
7800000F00
7800000F00
7800000F00
7800000700
7000000780
7000000780
F000000780
F000000780
F000000780
F000000780
7000000780
7800000700
7800000F00
7800000F00
7800000F00
3C00001E00
3C00001E00
1E00003C00
1F00007C00
0F8000F800
07E003F000
03FF3FE000
01FFFFC000
007FFF0000
000FF80000
ENDCHAR
STARTCHAR 00D4
ENCODING 212
SWIDTH 720 0
DWIDTH 35 0
BBX 33 45 1 0
BITMAP
0003E00000
0003E00000
0007700000
000F380000
001E3C0000
003C1E0000
00780F0000
0000000000
0000000000
0000000000
000FF80000
007FFF0000
01FFFFC000
03FF7FE000
07E003F000
0F8000F800
1F00007C00
1E00003C00
3C00001E00
3C00001E00
7800000F00
7800000F00
7800000F00
7800000700
7000000780
7000000780
F000000780
F000000780
F000000780
F000000780
7000000780
7800000700
7800000F00
7800000F00
7800000F00
3C00001E00
3C00001E00
1E00003C00
1F00007C00
0F8000F800
07E003F000
03FF3FE000
01FFFFC000
007FFF0000
000FF80000
ENDCHAR
STARTCHAR 00D5
ENCODING 213
SWIDTH 720 0
DWIDTH 35 0
BBX 33 44 1 0
BITMAP
001E000000
003F830000
003FE70000
0031FF0000
00307F0000
00001C0000
0000000000
0000000000
0000000000
000FF80000
007FFF0000
01FFFFC000
03FF7FE000
07E003F000
0F8000F800
1F00007C00
1E00003C00
3C00001E00
3C00001E00
7800000F00
7800000F00
7800000F00
7800000700
7000000780
7000000780
F000000780
F000000780
F000000780
F000000780
7000000780
7800000700
7800000F00
7800000F00
7800000F00
3C00001E00
3C00001E00
1E00003C00
1F00007C00
0F8000F800
07E003F000
03FF3FE000
01FFFFC000
007FFF0000
000FF80000
ENDCHAR
STARTCHAR 00D6
ENCODING 214
SWIDTH 720 0
DWIDTH 35 0
BBX 33 43 1 0
BITMAP
003C1E0000
003C1E0000
003C1E0000
003C1E0000
0000000000
0000000000
0000000000
0000000000
000FF80000
007FFF0000
01FFFFC000
03FF7FE000
07E003F000
0F8000F800
1F00007C00
1E00003C00
3C00001E00
3C00001E00
7800000F00
7800000F00
7800000F00
7800000700
7000000780
7000000780
F000000780
F000000780
F000000780
F000000780
7000000780
7800000700
7800000F00
7800000F00
7800000F00
3C00001E00
3C00001E00
1E00003C00
1F00007C00
0F8000F800
07E003F000
03FF3FE000
01FFFFC000
007FFF0000
000FF80000
ENDCHAR
STARTCHAR 00D7
ENCODING 215
SWIDTH 493 0
DWIDTH 24 0
BBX 18 18 3 8
BITMAP
200100
700380
F80780
7C0F00
3E1E00
1F3C00
0FF800
07F000
03E000
03F000
07F800
0F7C00
1E3E00
3C1F00
780F80
F007C0
600380
000100
ENDCHAR
STARTCHAR 00D8
ENCODING 216
SWIDTH 720 0
DWIDTH 35 0
BBX 33 35 1 0
BITMAP
000FF80100
007FFF0380
01FFFFC780
03FF7FEF00
07E003FE00
0F8000FC00
1F00007C00
1E0000FE00
3E0001FE00
3C0003FE00
780007CF00
78000F8F00
78001F0F00
78003E0700
70003C0780
7000780780
F000F00780
F001E00780
F003C00780
F007800780
700F000700
781E000700
783C000F00
7878000F00
78F0000F00
3DE0001E00
3FC0001E00
1F80003C00
1F00007C00
1F8000F800
3FE003F000
7FFF3FE000
F9FFFFC000
707FFF0000
200FF80000
ENDCHAR
STARTCHAR 00D9
ENCODING 217
SWIDTH 699 0
DWIDTH 34 0
BBX 28 47 3 0
BITMAP
00380000
001C0000
001C0000
001C0000
000E0000
000E0000
000F0000
00070000
00000000
00000000
00000000
00000000
F00000F0
F00000F0
F00000F0
F00000F0
F00000F0
F00000F0
F00000F0
F00000F0
F00000F0
F00000F0
F00000F0
F00000F0
F00000F0
F00000F0
F00000F0
F00000F0
F00000F0
F00000F0
F00000F0
F00000F0
F00000F0
F00000F0
F00000F0
F00000F0
700000E0
780001E0
780001E0
7C0003E0
3E0007C0
1F000F80
1F801F80
0FF9FF00
03FFFE00
01FFF800
003FC000
ENDCHAR
STARTCHAR 00DA
ENCODING 218
SWIDTH 699 0
DWIDTH 34 0
BBX 28 47 3 0
BITMAP
0001C000
0001C000
00038000
00038000
00078000
00070000
00070000
000E0000
00000000
00000000
00000000
00000000
F00000F0
F00000F0
F00000F0
F00000F0
F00000F0
F00000F0
F00000F0
F00000F0
F00000F0
F00000F0
F00000F0
F00000F0
F00000F0
F00000F0
F00000F0
F00000F0
F00000F0
F00000F0
F00000F0
F00000F0
F00000F0
F00000F0
F00000F0
F00000F0
700000E0
780001E0
780001E0
7C0003E0
3E0007C0
1F000F80
1F801F80
0FF9FF00
03FFFE00
01FFF800
003FC000
ENDCHAR
STARTCHAR 00DB
ENCODING 219
SWIDTH 699 0
DWIDTH 34 0
BBX 28 46 3 0
BITMAP
000F0000
001F8000
001F8000
0039C000
0079E000
00F0F000
01E07800
00000000
00000000
00000000
00000000
F00000F0
F00000F0
F00000F0
F00000F0
F00000F0
F00000F0
F00000F0
F00000F0
F00000F0
F00000F0
F00000F0
F00000F0
F00000F0
F00000F0
F00000F0
F00000F0
F00000F0
F00000F0
F00000F0
F00000F0
F00000F0
F00000F0
F00000F0
F00000F0
700000E0
780001E0
780001E0
7C0003E0
3E0007C0
1F000F80
1F801F80
0FF9FF00
03FFFE00
01FFF800
003FC000
ENDCHAR
STARTCHAR 00DC
ENCODING 220
SWIDTH 699 0
DWIDTH 34 0
BBX 28 44 3 0
BITMAP
01E07800
01E07800
01E07800
01E07800
00000000
00000000
00000000
00000000
00000000
F00000F0
F00000F0
F00000F0
F00000F0
F00000F0
F00000F0
F00000F0
F00000F0
F00000F0
F00000F0
F00000F0
F00000F0
F00000F0
F00000F0
F00000F0
F00000F0
F00000F0
F00000F0
F00000F0
F00000F0
F00000F0
F00000F0
F00000F0
F00000F0
700000E0
780001E0
780001E0
7C0003E0
3E0007C0
1F000F80
1F801F80
0FF9FF00
03FFFE00
01FFF800
003FC000
ENDCHAR
STARTCHAR 00DD
ENCODING 221
SWIDTH 555 0
DWIDTH 27 0
BBX 27 47 0 0
BITMAP
00038000
00038000
00038000
00070000
00070000
000F0000
000E0000
000E0000
00000000
00000000
00000000
00000000
F00001E0
780003C0
7C0007C0
3C000780
1E000F00
1E000F00
0F001E00
0F001E00
07803C00
07C07C00
03C07800
01E0F000
01E0F000
00F1E000
00F9E000
007BC000
007FC000
003F8000
001F0000
001F0000
000E0000
000E0000
000E0000
000E0000
000E0000
000E0000
000E0000
000E0000
000E0000
000E0000
000E0000
000E0000
000E0000
000E0000
000E0000
ENDCHAR
STARTCHAR 00DE
ENCODING 222
SWIDTH 596 0
DWIDTH 29 0
BBX 24 35 3 0
BITMAP
F00000
F00000
F00000
F00000
F00000
F00000
F00000
FFFFC0
FFFFF0
FFFFF8
F000FC
F0003E
F0001E
F0000F
F0000F
F0000F
F00007
F00007
F00007
F0000F
F0000F
F0000F
F0001E
F0003E
F000FC
FFFFF8
FFFFF0
FFFFC0
F00000
F00000
F00000
F00000
F00000
F00000
F00000
ENDCHAR
STARTCHAR 00DF
ENCODING 223
SWIDTH 596 0
DWIDTH 29 0
BBX 23 35 3 0
BITMAP
01FC00
0FFF00
1FFF80
3FDFC0
3C03E0
7801E0
7800F0
7000F0
F000F0
F000F0
F000F0
F000F0
F001F0
F001E0
F007C0
F03F80
F03FC0
F03FE0
F007F8
F000F8
F0003C
F0001E
F0001E
F0001E
F0000E
F0001E
F0001E
F0001E
F0003E
F0003C
F000FC
F0FFF8
F0FFF0
F0FFE0
F0FF00
ENDCHAR
STARTCHAR 00E0
ENCODING 224
SWIDTH 555 0
DWIDTH 27 0
BBX 22 37 2 0
BITMAP
00E000
00E000
00E000
007000
007000
003800
003800
003800
000000
000000
000000
00FE00
07FFC0
0FFFE0
1FEFF0
3E00F8
7C0078
78003C
18003C
00003C
00001C
0007FC
01FFFC
0FFFFC
3FF81C
7F003C
78003C
F0003C
F0003C
F0003C
F0007C
F000FC
7801FC
7C0FDC
3FFF9C
1FFE1C
07F800
ENDCHAR
STARTCHAR 00E1
ENCODING 225
SWIDTH 555 0
DWIDTH 27 0
BBX 22 37 2 0
BITMAP
000700
000700
000E00
000E00
001C00
001C00
001C00
003800
000000
000000
000000
00FE00
07FFC0
0FFFE0
1FEFF0
3E00F8
7C0078
78003C
18003C
00003C
00001C
0007FC
01FFFC
0FFFFC
3FF81C
7F003C
78003C
F0003C
F0003C
F0003C
F0007C
F000FC
7801FC
7C0FDC
3FFF9C
1FFE1C
07F800
ENDCHAR
STARTCHAR 00E2
ENCODING 226
SWIDTH 555 0
DWIDTH 27 0
BBX 22 36 2 0
BITMAP
003C00
007E00
00FF00
01E780
03C380
0381C0
0701E0
000000
000000
000000
00FE00
07FFC0
0FFFE0
1FEFF0
3E00F8
7C0078
78003C
18003C
00003C
00001C
0007FC
01FFFC
0FFFFC
3FF81C
7F003C
78003C
F0003C
F0003C
F0003C
F0007C
F000FC
7801FC
7C0FDC
3FFF9C
1FFE1C
07F800
ENDCHAR
STARTCHAR 00E3
ENCODING 227
SWIDTH 555 0
DWIDTH 27 0
BBX 22 35 2 0
BITMAP
03E000
07F860
07FC60
073FE0
060FE0
000380
000000
000000
000000
00FE00
07FFC0
0FFFE0
1FEFF0
3E00F8
7C0078
78003C
18003C
00003C
00001C
0007FC
01FFFC
0FFFFC
3FF81C
7F003C
78003C
F0003C
F0003C
F0003C
F0007C
F000FC
7801FC
7C0FDC
3FFF9C
1FFE1C
07F800
ENDCHAR
STARTCHAR 00E4
ENCODING 228
SWIDTH 555 0
DWIDTH 27 0
BBX 22 35 2 0
BITMAP
0781E0
0781E0
0781E0
0781E0
000000
000000
000000
000000
000000
00FE00
07FFC0
0FFFE0
1FEFF0
3E00F8
7C0078
78003C
18003C
00003C
00001C
0007FC
01FFFC
0FFFFC
1FF81C
3F003C
78003C
F0003C
F0003C
F0003C
F0007C
F000FC
F801FC
7C0FDC
3FFF9C
1FFE1C
07F80C
ENDCHAR
STARTCHAR 00E5
ENCODING 229
SWIDTH 555 0
DWIDTH 27 0
BBX 22 39 2 0
BITMAP
001800
007E00
00FF00
01C780
018380
018380
018380
01C380
01FF00
00FF00
003C00
000000
000000
00FE00
07FFC0
0FFFE0
1FEFF0
3E00F8
7C0078
78003C
18003C
00003C
00001C
0007FC
01FFFC
0FFFFC
3FF81C
7F003C
78003C
F0003C
F0003C
F0003C
F0007C
F000FC
7801FC
7C0FDC
3FFF9C
1FFE1C
07F800
ENDCHAR
STARTCHAR 00E6
ENCODING 230
SWIDTH 946 0
DWIDTH 46 0
BBX 42 26 2 0
BITMAP
00FF001FC000
07FFC0FFF000
0FFFE1FFFC00
1FEFF3F0FE00
3E00FFC01F00
7C007F800F00
78003F000780
10003E000780
00003E000380
00001E000380
00001C0003C0
00FFFFFFFFC0
0FFFFFFFFFC0
3FFFFFFFFFC0
7E003C000000
78003C000000
F0003E000000
F0003E000000
F0003E000200
F0007F000780
F000FF800F80
F801E7C01F00
7C0FC3F9FE00
3FFF81FFFC00
1FFF00FFF800
07F8001FC000
ENDCHAR
STARTCHAR 00E7
ENCODING 231
SWIDTH 555 0
DWIDTH 27 0
BBX 23 37 2 -11
BITMAP
00FF00
03FFC0
0FFFF0
1FF7F8
3F007C
3C003E
7C001E
78000C
700000
F00000
F00000
F00000
F00000
F00000
F00000
F00000
F00000
780000
780000
7C001E
3C003E
3F007C
1FE7F8
0FFFF0
03FFE0
00FF00
001800
003800
003800
003E00
001E00
000700
000700
000F00
007E00
00FE00
007800
ENDCHAR
STARTCHAR 00E8
ENCODING 232
SWIDTH 576 0
DWIDTH 28 0
BBX 24 37 2 0
BITMAP
00F000
007000
007000
003800
003800
003800
001C00
001C00
000000
000000
000000
00FF00
03FFE0
0FFFF0
1FC3F8
3F007C
3C003E
78001E
78000F
70000F
F0000F
F00007
FFFFFF
FFFFFF
FFFFFF
F00000
F00000
F00000
700000
78000C
78000F
3C001E
1F007C
1FE7FC
0FFFF0
03FFE0
00FF00
ENDCHAR
STARTCHAR 00E9
ENCODING 233
SWIDTH 576 0
DWIDTH 28 0
BBX 24 37 2 0
BITMAP
000380
000380
000700
000700
000700
000E00
000E00
001C00
000000
000000
000000
00FF00
03FFE0
0FFFF0
1FC3F8
3F007C
3C003E
78001E
78000F
70000F
F0000F
F00007
FFFFFF
FFFFFF
FFFFFF
F00000
F00000
F00000
700000
78000C
78000F
3C001E
1F007C
1FE7FC
0FFFF0
03FFE0
00FF00
ENDCHAR
STARTCHAR 00EA
ENCODING 234
SWIDTH 576 0
DWIDTH 28 0
BBX 24 36 2 0
BITMAP
003C00
007E00
007F00
00E780
01E3C0
03C1E0
0780E0
000000
000000
000000
00FF00
03FFE0
0FFFF0
1FC3F8
3F007C
3C003E
78001E
78000F
70000F
F0000F
F00007
FFFFFF
FFFFFF
FFFFFF
F00000
F00000
F00000
700000
78000C
78000F
3C001E
1F007C
1FE7FC
0FFFF0
03FFE0
00FF00
ENDCHAR
STARTCHAR 00EB
ENCODING 235
SWIDTH 576 0
DWIDTH 28 0
BBX 24 35 2 0
BITMAP
03C1E0
03C1E0
03C1E0
03C1E0
000000
000000
000000
000000
000000
00FF00
03FFE0
0FFFF0
1FC3F8
3F007C
3C003E
78001E
78000F
70000F
F0000F
F00007
FFFFFF
FFFFFF
FFFFFF
F00000
F00000
F00000
700000
78000C
78000F
3C001E
1F007C
1FE7FC
0FFFF0
03FFE0
00FF00
ENDCHAR
STARTCHAR 00EC
ENCODING 236
SWIDTH 226 0
DWIDTH 11 0
BBX 6 38 1 0
BITMAP
E0
70
70
70
38
38
3C
1C
00
00
00
00
1C
1C
1C
1C
1C
1C
1C
1C
1C
1C
1C
1C
1C
1C
1C
1C
1C
1C
1C
1C
1C
1C
1C
1C
1C
1C
ENDCHAR
STARTCHAR 00ED
ENCODING 237
SWIDTH 226 0
DWIDTH 11 0
BBX 6 38 4 0
BITMAP
1C
1C
38
38
78
70
70
E0
00
00
00
00
E0
E0
E0
E0
E0
E0
E0
E0
E0
E0
E0
E0
E0
E0
E0
E0
E0
E0
E0
E0
E0
E0
E0
E0
E0
E0
ENDCHAR
STARTCHAR 00EE
ENCODING 238
SWIDTH 226 0
DWIDTH 11 0
BBX 14 37 -1 0
BITMAP
0780
0F80
1FC0
1DE0
38F0
7878
F03C
0000
0000
0000
0000
0700
0700
0700
0700
0700
0700
0700
0700
0700
0700
0700
0700
0700
0700
0700
0700
0700
0700
0700
0700
0700
0700
0700
0700
0700
0700
ENDCHAR
STARTCHAR 00EF
ENCODING 239
SWIDTH 226 0
DWIDTH 11 0
BBX 13 35 -1 0
BITMAP
F078
F078
F078
F078
0000
0000
0000
0000
0000
0700
0700
0700
0700
0700
0700
0700
0700
0700
0700
0700
0700
0700
0700
0700
0700
0700
0700
0700
0700
0700
0700
0700
0700
0700
0700
ENDCHAR
STARTCHAR 00F0
ENCODING 240
SWIDTH 576 0
DWIDTH 28 0
BBX 24 38 2 1
BITMAP
000070
0078F0
007FE0
007FC0
000FC0
0007E0
000FF0
001E78
001C3C
00001C
00001C
00000E
00FF0E
03FFCE
0FFFF7
1FC3FF
3E007F
3C003F
78001F
78000F
70000F
F0000F
F0000F
F00007
F00007
F00007
F00007
F0000F
F0000F
70000F
78000E
78001E
3C003E
3E007C
1FC3F8
0FFFF0
03FFE0
00FF00
ENDCHAR
STARTCHAR 00F1
ENCODING 241
SWIDTH 596 0
DWIDTH 29 0
BBX 23 35 3 0
BITMAP
03C000
07F0E0
0FFCE0
0E3FE0
0E1FC0
000780
000000
000000
000000
E07F00
F1FFC0
F7FFE0
FFE7F0
FF00F8
FC007C
F8003C
F8003C
F0001E
F0001E
F0001E
F0001E
F0001E
F0001E
F0001E
F0001E
F0001E
F0001E
F0001E
F0001E
F0001E
F0001E
F0001E
F0001E
F0001E
F0001E
ENDCHAR
STARTCHAR 00F2
ENCODING 242
SWIDTH 596 0
DWIDTH 29 0
BBX 25 37 2 0
BITMAP
00E00000
00E00000
00700000
00700000
00780000
00380000
00380000
001C0000
00000000
00000000
00000000
00FF0000
03FFE000
0FFFF000
1FF7F800
1F007C00
3C003E00
7C001E00
78000F00
70000F00
F0000700
F0000780
F0000780
F0000780
F0000780
F0000780
F0000780
F0000700
78000F00
78000F00
7C001E00
3C003E00
3F007C00
1FE7F800
0FFFF000
03FFE000
007F0000
ENDCHAR
STARTCHAR 00F3
ENCODING 243
SWIDTH 596 0
DWIDTH 29 0
BBX 25 37 2 0
BITMAP
00038000
00070000
00070000
000E0000
000E0000
000E0000
001C0000
001C0000
00000000
00000000
00000000
00FF0000
03FFE000
0FFFF000
1FF7F800
1F007C00
3C003E00
7C001E00
78000F00
70000F00
F0000700
F0000780
F0000780
F0000780
F0000780
F0000780
F0000780
F0000700
78000F00
78000F00
7C001E00
3C003E00
3F007C00
1FE7F800
0FFFF000
03FFE000
007F0000
ENDCHAR
STARTCHAR 00F4
ENCODING 244
SWIDTH 596 0
DWIDTH 29 0
BBX 25 36 2 0
BITMAP
003C0000
007E0000
007F0000
00E78000
01E3C000
03C1E000
0780F000
00000000
00000000
00000000
00FF0000
03FFE000
0FFFF000
1FF7F800
1F007C00
3C003E00
7C001E00
78000F00
70000F00
F0000700
F0000780
F0000780
F0000780
F0000780
F0000780
F0000780
F0000700
78000F00
78000F00
7C001E00
3C003E00
3F007C00
1FE7F800
0FFFF000
03FFE000
007F0000
ENDCHAR
STARTCHAR 00F5
ENCODING 245
SWIDTH 596 0
DWIDTH 29 0
BBX 25 35 2 0
BITMAP
01E00000
03F87000
07FE7000
071FF000
070FE000
0003C000
00000000
00000000
00000000
00FF0000
03FFE000
0FFFF000
1FF7F800
1F007C00
3C003E00
7C001E00
78000F00
70000F00
F0000700
F0000780
F0000780
F0000780
F0000780
F0000780
F0000780
F0000700
78000F00
78000F00
7C001E00
3C003E00
3F007C00
1FE7F800
0FFFF000
03FFE000
007F0000
ENDCHAR
STARTCHAR 00F6
ENCODING 246
SWIDTH 596 0
DWIDTH 29 0
BBX 25 35 2 0
BITMAP
03C1E000
03C1E000
03C1E000
03C1E000
00000000
00000000
00000000
00000000
00000000
00FF0000
03FFE000
0FFFF000
1FF7F800
1F007C00
3C003E00
7C001E00
78000F00
70000F00
F0000700
F0000780
F0000780
F0000780
F0000780
F0000780
F0000780
F0000700
78000F00
78000F00
7C001E00
3C003E00
3F007C00
1FE7F800
0FFFF000
03FFE000
007F0000
ENDCHAR
STARTCHAR 00F7
ENCODING 247
SWIDTH 534 0
DWIDTH 26 0
BBX 20 17 3 9
BITMAP
00F000
00F000
00F000
00F000
000000
000000
000000
FFFFF0
FFFFF0
FFFFF0
000000
000000
000000
00F000
00F000
00F000
00F000
ENDCHAR
STARTCHAR 00F8
ENCODING 248
SWIDTH 596 0
DWIDTH 29 0
BBX 27 26 1 0
BITMAP
007F8080
01FFF1C0
03FFFFE0
0FFBFFC0
0F803F00
1E001F00
3E003F80
3C007F80
3C00F780
7801E3C0
7803C3C0
780783C0
780F03C0
781E03C0
783C03C0
787803C0
78F00380
79E00780
3F800780
3F000F00
1E001F00
3F803E00
7FF3FC00
FFFFF800
71FFF000
207F8000
ENDCHAR
STARTCHAR 00F9
ENCODING 249
SWIDTH 596 0
DWIDTH 29 0
BBX 22 38 3 0
BITMAP
01C000
00E000
00E000
00E000
007000
007000
007800
003800
000000
000000
000000
000000
F0001C
F0001C
F0001C
F0001C
F0001C
F0001C
F0001C
F0001C
F0001C
F0001C
F0001C
F0001C
F0001C
F0001C
F0001C
F0001C
F0001C
F0003C
70003C
78007C
7C007C
3E01FC
1FCFFC
1FFFDC
07FF1C
01FC1C
ENDCHAR
STARTCHAR 00FA
ENCODING 250
SWIDTH 596 0
DWIDTH 29 0
BBX 22 38 3 0
BITMAP
000E00
000E00
000E00
001C00
001C00
003800
003800
003800
000000
000000
000000
000000
F0001C
F0001C
F0001C
F0001C
F0001C
F0001C
F0001C
F0001C
F0001C
F0001C
F0001C
F0001C
F0001C
F0001C
F0001C
F0001C
F0001C
F0003C
70003C
78007C
7C007C
3E01FC
1FCFFC
1FFFDC
07FF1C
01FC1C
ENDCHAR
STARTCHAR 00FB
ENCODING 251
SWIDTH 596 0
DWIDTH 29 0
BBX 22 37 3 0
BITMAP
007800
007C00
00FE00
01CE00
03C700
078780
0F03C0
000000
000000
000000
000000
F0001C
F0001C
F0001C
F0001C
F0001C
F0001C
F0001C
F0001C
F0001C
F0001C
F0001C
F0001C
F0001C
F0001C
F0001C
F0001C
F0001C
F0003C
70003C
78007C
7C007C
3E01FC
1FCFFC
1FFFDC
07FF1C
01FC1C
ENDCHAR
STARTCHAR 00FC
ENCODING 252
SWIDTH 596 0
DWIDTH 29 0
BBX 22 35 3 0
BITMAP
0703C0
0703C0
0703C0
0703C0
000000
000000
000000
000000
000000
F0001C
F0001C
F0001C
F0001C
F0001C
F0001C
F0001C
F0001C
F0001C
F0001C
F0001C
F0001C
F0001C
F0001C
F0001C
F0001C
F0001C
F0003C
70003C
78007C
7C007C
3E01FC
1FCFFC
1FFFDC
07FF1C
01FC1C
ENDCHAR
STARTCHAR 00FD
ENCODING 253
SWIDTH 534 0
DWIDTH 26 0
BBX 24 50 1 -12
BITMAP
000700
000700
000E00
000E00
000E00
001C00
001C00
003800
000000
000000
000000
000000
F0000F
F0000E
78001E
78001E
38003C
3C003C
3C0038
1E0078
1E0078
0E0070
0F00F0
0F00F0
0780E0
0781E0
0381C0
03C3C0
01C3C0
01E380
01E780
00E780
00F700
007F00
007E00
007E00
003E00
003C00
003C00
003C00
003800
007800
007000
007000
00F000
00E000
01E000
01E000
01C000
03C000
ENDCHAR
STARTCHAR 00FE
ENCODING 254
SWIDTH 596 0
DWIDTH 29 0
BBX 24 46 3 -11
BITMAP
F00000
F00000
F00000
F00000
F00000
F00000
F00000
F00000
F00000
F07F00
F1FFC0
F7FFE0
FFC7F0
FE00F8
FC007C
F8003C
F8001E
F0001E
F0000E
F0000F
F0000F
F0000F
F0000F
F0000F
F0000F
F0000E
F0001E
F8001E
F8003C
FC007C
FE00F8
FFC7F8
F7FFE0
F1FFC0
F07F00
F00000
F00000
F00000
F00000
F00000
F00000
F00000
F00000
F00000
F00000
F00000
ENDCHAR
STARTCHAR 00FF
ENCODING 255
SWIDTH 534 0
DWIDTH 26 0
BBX 24 47 1 -12
BITMAP
0781E0
0781E0
0781E0
0781E0
000000
000000
000000
000000
000000
F0000F
F0000E
78001E
78001E
38003C
3C003C
3C0038
1E0078
1E0078
0E0070
0F00F0
0F00F0
0780E0
0781E0
0381C0
03C3C0
01C3C0
01E380
01E780
00E780
00F700
007F00
007E00
007E00
003E00
003C00
003C00
003C00
003800
007800
007000
007000
00F000
00E000
01E000
01E000
01C000
03C000
ENDCHAR
ENDFONT
